<?xml version="1.0" encoding="utf-8"?>
<!-- Generator: Adobe Illustrator 17.0.0, SVG Export Plug-In . SVG Version: 6.00 Build 0)  -->
<!DOCTYPE svg PUBLIC "-//W3C//DTD SVG 1.1//EN" "http://www.w3.org/Graphics/SVG/1.1/DTD/svg11.dtd">
<svg version="1.1" id="Layer_1" xmlns="http://www.w3.org/2000/svg" xmlns:xlink="http://www.w3.org/1999/xlink" x="0px" y="0px"
	 width="125px" height="150px" viewBox="0 0 125 150" enable-background="new 0 0 125 150" xml:space="preserve">
<g>
	<g>
		<circle fill="#F1F2F2" stroke="#D1D3D4" stroke-width="0.6265" stroke-miterlimit="10" cx="62.5" cy="57.022" r="56.169"/>
		<circle fill="#FFFFFF" cx="62.5" cy="57.022" r="47.542"/>
		<g>
			<defs>
				<circle id="SVGID_1_" cx="62.5" cy="57.022" r="47.542"/>
			</defs>
			<clipPath id="SVGID_2_">
				<use xlink:href="#SVGID_1_"  overflow="visible"/>
			</clipPath>
			<g clip-path="url(#SVGID_2_)">
				<g>
					<path fill="#F7991F" d="M12.487,13.947v58.814l26.715-27.336l23.608,23.608l49.909-49.909v-4.556
						c0-4.349-3.521-7.662-7.662-7.662c-18.845,0-67.305,0.207-85.529,0C15.594,6.906,12.487,10.012,12.487,13.947z"/>
				</g>
				<g>
					<polygon fill="#F7991F" points="51.006,57.022 38.995,69.24 51.006,81.459 					"/>
				</g>
				<g>
					<path fill="#F15823" d="M12.28,95.748v4.142c0,3.935,3.313,7.248,7.248,7.248h86.15c3.935,0,7.041-3.106,7.041-7.041V42.733
						L62.811,92.642L39.202,69.033C39.202,69.033,12.487,95.955,12.28,95.748z"/>
				</g>
			</g>
		</g>
	</g>
	<g>
		<g>
			<path fill="#75787D" d="M59.799,142.249c-0.214,0.107-0.481,0.267-0.695,0.374c-0.695,0.321-1.39,0.374-2.032,0.374
				c-0.695,0-1.711-0.053-2.781-0.802c-1.497-1.07-2.139-2.888-2.139-4.439c0-3.262,2.674-4.866,4.813-4.866
				c0.749,0,1.551,0.214,2.193,0.588c1.07,0.695,1.337,1.604,1.497,2.086l-4.973,1.979l-1.604,0.107
				c0.535,2.674,2.353,4.225,4.332,4.225c1.07,0,1.872-0.374,2.567-0.749L59.799,142.249L59.799,142.249z M57.821,135.938
				c0.374-0.16,0.588-0.267,0.588-0.588c0-0.856-0.963-1.818-2.086-1.818c-0.856,0-2.406,0.642-2.406,2.941
				c0,0.374,0.053,0.749,0.053,1.123L57.821,135.938L57.821,135.938z M51.617,142.73l0.802-0.481
				c-0.374-0.053-0.695-0.053-1.07-0.107c-0.695-0.053-0.856-0.214-0.856-1.016v-4.866c0-2.995,0-5.562,0.214-7.166
				c0.107-0.749,0.321-0.856,0.963-1.23h-2.995l-1.604,0.749h1.658c0,0.963-0.107,2.3-0.107,3.369
				c-0.053,2.193-0.107,4.546-0.107,6.15v3.423c0,0.428-0.107,0.481-0.588,1.123h3.69V142.73z M44.719,133.906
				c0.481,0.374,1.497,1.23,1.497,2.834c0,1.551-0.909,2.3-1.765,2.995c-0.267,0.267-0.588,0.588-0.588,1.016
				c0,0.481,0.321,0.695,0.535,0.909l0.749,0.588c0.909,0.802,1.765,1.497,1.765,2.941c0,1.979-1.925,3.957-5.562,3.957
				c-3.048,0-4.546-1.444-4.546-2.995c0-0.749,0.374-1.818,1.604-2.567c1.283-0.802,3.102-0.909,4.011-0.963
				c-0.321-0.374-0.642-0.802-0.642-1.444c0-0.374,0.107-0.588,0.214-0.802c-0.214,0-0.481,0.053-0.695,0.053
				c-2.246,0-3.476-1.658-3.476-3.316c0-0.963,0.428-2.032,1.337-2.834c1.177-1.016,2.62-1.177,3.797-1.177h4.332l-1.337,0.749
				h-1.23V133.906z M43.221,143.265c-0.16,0-0.267,0-0.481,0c-0.214,0-1.337,0.053-2.193,0.321c-0.481,0.16-1.818,0.695-1.818,2.193
				c0,1.497,1.444,2.567,3.69,2.567c2.032,0,3.102-0.963,3.102-2.3C45.521,144.976,44.826,144.388,43.221,143.265L43.221,143.265z
				 M43.81,139.254c0.481-0.481,0.535-1.177,0.535-1.551c0-1.497-0.909-3.904-2.674-3.904c-0.535,0-1.123,0.267-1.497,0.695
				c-0.374,0.428-0.481,1.016-0.481,1.551c0,1.39,0.802,3.743,2.62,3.743C42.9,139.842,43.489,139.628,43.81,139.254L43.81,139.254z
				 M31.617,142.997c-3.369,0-5.134-2.62-5.134-4.973c0-2.781,2.246-5.134,5.455-5.134c3.102,0,5.027,2.406,5.027,4.973
				C36.964,140.323,35.093,142.997,31.617,142.997L31.617,142.997z M34.291,141.286c0.481-0.695,0.642-1.497,0.642-2.353
				c0-1.872-0.909-5.401-3.476-5.401c-0.695,0-1.39,0.267-1.872,0.695c-0.802,0.749-0.963,1.658-0.963,2.567
				c0,2.086,1.016,5.508,3.583,5.508C32.954,142.356,33.809,141.928,34.291,141.286L34.291,141.286z M20.44,142.997
				c-3.369,0-5.134-2.62-5.134-4.973c0-2.781,2.246-5.134,5.455-5.134c3.102,0,5.027,2.406,5.027,4.973
				C25.788,140.323,23.862,142.997,20.44,142.997L20.44,142.997z M23.06,141.286c0.481-0.695,0.642-1.497,0.642-2.353
				c0-1.872-0.909-5.401-3.476-5.401c-0.695,0-1.39,0.267-1.872,0.695c-0.802,0.749-0.963,1.658-0.963,2.567
				c0,2.086,1.016,5.508,3.583,5.508C21.723,142.356,22.579,141.928,23.06,141.286L23.06,141.286z M13.916,142.249v-2.406
				c0-0.214,0-0.749,0.053-0.963c0.053-0.16,0.053-0.214,0.214-0.321l0.535-0.481h-4.171l-1.604,0.856l2.995-0.16v3.155
				c-0.588,0.214-1.23,0.481-2.513,0.481c-4.332,0-7.006-3.476-7.006-7.219c0-3.476,2.353-5.829,5.455-5.829
				c2.353,0,3.53,1.23,4.225,1.872l-0.481,0.802l0.695-0.16l1.658-1.551c-0.428-0.321-1.123-0.802-2.62-1.23
				c-0.909-0.267-1.979-0.428-3.048-0.428c-5.027,0-7.968,3.53-7.968,7.38c0,3.155,2.086,7.166,7.54,7.166
				c1.07,0,2.139-0.16,3.262-0.321L13.916,142.249L13.916,142.249z"/>
		</g>
		<g>
			<path fill="#75787D" d="M72.848,138.452h-4.599l-1.604,4.011h-0.856l4.599-11.391h0.481l4.492,11.391h-0.909L72.848,138.452z
				 M68.516,137.756h4.064l-1.551-4.118c-0.107-0.321-0.267-0.749-0.481-1.337c-0.16,0.481-0.267,0.963-0.481,1.337L68.516,137.756z
				"/>
			<path fill="#75787D" d="M82.634,142.462v-5.455c0-0.856-0.16-1.444-0.535-1.872c-0.374-0.428-0.909-0.588-1.658-0.588
				c-1.016,0-1.765,0.267-2.246,0.749c-0.481,0.535-0.695,1.337-0.695,2.46v4.653h-0.749v-8.396h0.642l0.16,1.177h0.053
				c0.535-0.856,1.551-1.337,2.941-1.337c1.925,0,2.888,1.016,2.888,3.102v5.508H82.634z"/>
			<path fill="#75787D" d="M90.602,142.462l-0.214-1.337h-0.053c-0.428,0.535-0.856,0.909-1.337,1.176
				c-0.428,0.214-0.963,0.321-1.604,0.321c-0.856,0-1.497-0.214-1.925-0.642c-0.481-0.428-0.695-1.016-0.695-1.765
				c0-0.802,0.321-1.444,1.016-1.925c0.695-0.481,1.658-0.695,2.995-0.749l1.604-0.053v-0.535c0-0.802-0.16-1.39-0.481-1.818
				c-0.321-0.428-0.856-0.588-1.604-0.588c-0.802,0-1.604,0.214-2.46,0.642l-0.267-0.695c0.909-0.428,1.872-0.642,2.727-0.642
				c0.909,0,1.604,0.267,2.086,0.749c0.481,0.481,0.695,1.23,0.695,2.246v5.615H90.602z M87.501,141.928
				c0.909,0,1.604-0.267,2.139-0.749c0.535-0.481,0.802-1.23,0.802-2.139v-0.856l-1.497,0.053c-1.177,0.053-2.032,0.267-2.513,0.535
				c-0.481,0.321-0.749,0.802-0.749,1.444c0,0.535,0.16,0.963,0.481,1.23C86.485,141.767,86.913,141.928,87.501,141.928z"/>
			<path fill="#75787D" d="M94.399,142.462h-0.749v-12.086h0.749V142.462z"/>
			<path fill="#75787D" d="M95.469,134.013h0.802l1.765,4.76c0.535,1.444,0.909,2.46,1.016,2.941h0.053
				c0.214-0.642,0.588-1.658,1.07-2.995l1.765-4.706h0.802l-3.797,9.84c-0.321,0.802-0.588,1.337-0.749,1.604
				c-0.16,0.267-0.428,0.481-0.749,0.642c-0.267,0.16-0.588,0.214-1.016,0.214c-0.321,0-0.642-0.053-0.963-0.16v-0.695
				c0.321,0.107,0.642,0.107,0.963,0.107c0.267,0,0.481-0.053,0.695-0.16c0.214-0.107,0.374-0.321,0.535-0.588
				c0.16-0.267,0.374-0.695,0.588-1.23c0.214-0.535,0.374-0.963,0.428-1.123L95.469,134.013z"/>
			<path fill="#75787D" d="M107.074,141.928c0.481,0,0.909-0.053,1.283-0.107v0.642c-0.374,0.107-0.802,0.16-1.283,0.16
				c-0.749,0-1.283-0.214-1.658-0.588c-0.374-0.374-0.535-1.016-0.535-1.872v-5.455h-1.283v-0.428l1.23-0.374l0.374-1.925h0.374
				v2.032h2.46v0.695h-2.46v5.348c0,0.642,0.107,1.123,0.321,1.444C106.218,141.767,106.592,141.928,107.074,141.928z"/>
			<path fill="#75787D" d="M109.427,131.66c0-0.481,0.16-0.749,0.481-0.749c0.16,0,0.267,0.053,0.374,0.214
				c0.107,0.107,0.16,0.321,0.16,0.535s-0.053,0.428-0.16,0.535c-0.107,0.16-0.214,0.214-0.374,0.214
				C109.587,132.409,109.427,132.195,109.427,131.66z M110.336,142.462h-0.749v-8.449h0.749V142.462z"/>
			<path fill="#75787D" d="M115.577,142.623c-1.23,0-2.139-0.374-2.834-1.123s-1.016-1.818-1.016-3.209
				c0-1.39,0.374-2.513,1.07-3.262s1.658-1.177,2.941-1.177c0.749,0,1.444,0.107,2.086,0.374l-0.214,0.695
				c-0.749-0.267-1.39-0.374-1.925-0.374c-1.016,0-1.818,0.321-2.353,0.963c-0.535,0.642-0.802,1.551-0.802,2.781
				c0,1.123,0.267,2.032,0.802,2.674c0.535,0.642,1.283,0.963,2.246,0.963c0.749,0,1.497-0.16,2.139-0.428v0.695
				C117.127,142.516,116.432,142.623,115.577,142.623z"/>
			<path fill="#75787D" d="M124.668,140.27c0,0.749-0.267,1.337-0.856,1.765c-0.588,0.428-1.39,0.588-2.46,0.588
				c-1.123,0-2.032-0.16-2.674-0.535v-0.856c0.856,0.428,1.765,0.642,2.674,0.642c0.856,0,1.444-0.16,1.925-0.428
				c0.481-0.267,0.642-0.642,0.642-1.123c0-0.428-0.16-0.802-0.535-1.07c-0.321-0.267-0.909-0.588-1.711-0.856
				c-0.856-0.321-1.444-0.588-1.765-0.802c-0.321-0.214-0.588-0.481-0.749-0.749c-0.16-0.267-0.267-0.642-0.267-1.016
				c0-0.642,0.267-1.123,0.802-1.497s1.283-0.535,2.246-0.535c0.909,0,1.765,0.16,2.62,0.535l-0.267,0.695
				c-0.856-0.321-1.604-0.535-2.3-0.535c-0.695,0-1.23,0.107-1.658,0.321c-0.428,0.214-0.588,0.535-0.588,0.963
				c0,0.428,0.16,0.802,0.481,1.07s0.909,0.535,1.818,0.909c0.749,0.267,1.337,0.535,1.658,0.749s0.588,0.481,0.802,0.749
				C124.614,139.575,124.668,139.896,124.668,140.27z"/>
		</g>
	</g>
</g>
</svg>
