<?xml version="1.0" encoding="utf-8"?>
<!-- Generator: Adobe Illustrator 17.0.0, SVG Export Plug-In . SVG Version: 6.00 Build 0)  -->
<!DOCTYPE svg PUBLIC "-//W3C//DTD SVG 1.1//EN" "http://www.w3.org/Graphics/SVG/1.1/DTD/svg11.dtd">
<svg version="1.1" id="Layer_1" xmlns="http://www.w3.org/2000/svg" xmlns:xlink="http://www.w3.org/1999/xlink" x="0px" y="0px"
	 width="45px" height="45px" viewBox="0 0 45 45" enable-background="new 0 0 45 45" xml:space="preserve">
<g>
	<path fill="#F6981C" d="M45,41.027C45,43.212,43.212,45,41.027,45H3.973C1.788,45,0,43.212,0,41.027V3.973C0,1.788,1.788,0,3.973,0
		h37.055C43.212,0,45,1.788,45,3.973V41.027z"/>
	<path fill="#FFFFFF" d="M45,14.138L40.936,11.4c0.083-0.351,0.131-0.716,0.131-1.093c0-2.641-2.141-4.781-4.781-4.781
		c-2.64,0-4.781,2.141-4.781,4.781c0,1.039,0.335,1.998,0.898,2.782l-8.787,13.436c-0.358-0.086-0.73-0.136-1.114-0.136
		c-1.177,0-2.253,0.427-3.086,1.133l-5.881-3.385c0.03-0.216,0.051-0.436,0.051-0.66c0-2.641-2.141-4.781-4.781-4.781
		c-2.641,0-4.781,2.141-4.781,4.781c0,0.656,0.133,1.28,0.371,1.849L0,29.401v4.335l6.525-6.054
		c0.677,0.367,1.453,0.576,2.277,0.576c1.265,0,2.412-0.495,3.267-1.297l5.738,3.302c-0.057,0.294-0.088,0.596-0.088,0.906
		c0,2.64,2.141,4.781,4.781,4.781c2.641,0,4.781-2.141,4.781-4.781c0-1.1-0.376-2.11-1-2.918l8.726-13.342
		c0.407,0.113,0.834,0.178,1.277,0.178c1.107,0,2.124-0.38,2.935-1.012L45,17.97V14.138z"/>
	<path fill="#F05620" d="M39.219,14.076c-0.811,0.632-1.827,1.012-2.935,1.012c-0.443,0-0.87-0.065-1.277-0.178l-8.726,13.342
		c0.624,0.808,1,1.818,1,2.918c0,2.64-2.141,4.781-4.781,4.781c-2.641,0-4.781-2.141-4.781-4.781c0-0.31,0.032-0.613,0.088-0.906
		l-5.738-3.302c-0.855,0.802-2.002,1.297-3.267,1.297c-0.824,0-1.6-0.209-2.277-0.576L0,33.736v7.291C0,43.212,1.788,45,3.973,45
		h37.055C43.212,45,45,43.212,45,41.027V17.97L39.219,14.076z"/>
</g>
</svg>
