<?xml version="1.0" encoding="utf-8"?>
<!-- Generator: Adobe Illustrator 17.0.0, SVG Export Plug-In . SVG Version: 6.00 Build 0)  -->
<!DOCTYPE svg PUBLIC "-//W3C//DTD SVG 1.1//EN" "http://www.w3.org/Graphics/SVG/1.1/DTD/svg11.dtd">
<svg version="1.1" id="Layer_1" xmlns="http://www.w3.org/2000/svg" xmlns:xlink="http://www.w3.org/1999/xlink" x="0px" y="0px"
	 width="15.677px" height="12.788px" viewBox="0 0 15.677 12.788" enable-background="new 0 0 15.677 12.788" xml:space="preserve">
<path fill="#6D6D6D" d="M9.65,6.394l3.3-4.053c0.49-0.602,0.399-1.486-0.203-1.976c-0.601-0.49-1.485-0.4-1.976,0.203L7.838,4.169
	L4.906,0.568C4.416-0.035,3.53-0.125,2.929,0.365C2.328,0.855,2.237,1.74,2.727,2.341l3.3,4.053l-3.3,4.053
	c-0.49,0.602-0.399,1.486,0.203,1.976c0.26,0.212,0.574,0.315,0.886,0.315c0.408,0,0.813-0.177,1.09-0.518l2.933-3.602l2.933,3.602
	c0.278,0.341,0.682,0.518,1.09,0.518c0.312,0,0.626-0.103,0.886-0.315c0.602-0.49,0.692-1.375,0.203-1.976L9.65,6.394z"/>
</svg>
