<?xml version="1.0" encoding="utf-8"?>
<!-- Generator: Adobe Illustrator 17.0.0, SVG Export Plug-In . SVG Version: 6.00 Build 0)  -->
<!DOCTYPE svg PUBLIC "-//W3C//DTD SVG 1.1//EN" "http://www.w3.org/Graphics/SVG/1.1/DTD/svg11.dtd">
<svg version="1.1" id="Layer_1" xmlns="http://www.w3.org/2000/svg" xmlns:xlink="http://www.w3.org/1999/xlink" x="0px" y="0px"
	 width="148.152px" height="59.024px" viewBox="0 0 148.152 59.024" enable-background="new 0 0 148.152 59.024"
	 xml:space="preserve">
<g>
	<g>
		<g>
			<path fill="#FFFFFF" d="M71.261,48.928c0.083-0.054,0.209-0.11,0.378-0.168c0.168-0.059,0.363-0.088,0.583-0.088
				c0.273,0,0.517,0.049,0.729,0.147c0.212,0.098,0.392,0.234,0.539,0.411c0.146,0.176,0.258,0.386,0.333,0.63
				c0.076,0.245,0.114,0.514,0.114,0.807c0,0.308-0.045,0.585-0.136,0.833s-0.219,0.456-0.385,0.627
				c-0.166,0.171-0.366,0.303-0.601,0.396s-0.499,0.139-0.792,0.139c-0.318,0-0.599-0.022-0.843-0.066
				c-0.245-0.044-0.445-0.088-0.602-0.132v-5.463l0.682-0.117V48.928z M71.261,51.978c0.068,0.02,0.165,0.038,0.29,0.055
				c0.125,0.017,0.28,0.026,0.466,0.026c0.367,0,0.66-0.121,0.88-0.363c0.22-0.242,0.33-0.585,0.33-1.03
				c0-0.195-0.02-0.379-0.059-0.55s-0.103-0.319-0.191-0.444c-0.088-0.125-0.202-0.222-0.341-0.293s-0.307-0.106-0.502-0.106
				c-0.186,0-0.357,0.032-0.513,0.095c-0.157,0.063-0.276,0.129-0.359,0.198V51.978z"/>
			<path fill="#FFFFFF" d="M74.392,53.283c0.054,0.024,0.124,0.047,0.209,0.069s0.17,0.033,0.253,0.033
				c0.269,0,0.479-0.06,0.631-0.18s0.289-0.314,0.411-0.583c-0.308-0.586-0.595-1.208-0.862-1.866
				c-0.266-0.657-0.487-1.324-0.664-1.998h0.733c0.054,0.22,0.119,0.457,0.194,0.711c0.076,0.254,0.16,0.516,0.253,0.785
				c0.093,0.269,0.193,0.538,0.301,0.807c0.107,0.269,0.22,0.528,0.337,0.777c0.186-0.513,0.347-1.021,0.484-1.525
				c0.137-0.503,0.267-1.021,0.389-1.554h0.704c-0.176,0.718-0.372,1.409-0.587,2.071c-0.215,0.663-0.447,1.282-0.696,1.859
				c-0.098,0.22-0.2,0.41-0.305,0.568s-0.221,0.29-0.348,0.393c-0.127,0.103-0.27,0.178-0.429,0.227
				c-0.159,0.049-0.338,0.073-0.539,0.073c-0.054,0-0.11-0.003-0.169-0.011s-0.116-0.017-0.172-0.029s-0.107-0.026-0.154-0.041
				s-0.08-0.027-0.099-0.037L74.392,53.283z"/>
		</g>
		<g>
			<path fill="#FFFFFF" d="M80.343,48.724h1.85v1.27h0.028c0.4-0.745,0.842-1.463,2.016-1.463c0.124,0,0.248,0.014,0.373,0.028
				v1.961c-0.166-0.028-0.373-0.028-0.552-0.028c-1.505,0-1.781,0.939-1.781,1.753v3.824h-1.933V48.724z"/>
			<path fill="#FFFFFF" d="M91.762,53.915c-0.511,1.767-1.974,2.347-3.231,2.347c-2.071,0-3.659-0.994-3.659-4.017
				c0-0.884,0.304-3.714,3.521-3.714c1.45,0,3.451,0.69,3.451,4.045v0.345h-5.039c0.055,0.552,0.166,1.795,1.726,1.795
				c0.539,0,1.091-0.276,1.243-0.801L91.762,53.915L91.762,53.915z M89.856,51.665c-0.11-1.187-0.87-1.546-1.491-1.546
				c-0.911,0-1.395,0.58-1.505,1.546H89.856z"/>
			<path fill="#FFFFFF" d="M99.439,53.915c-0.511,1.767-1.974,2.347-3.231,2.347c-2.071,0-3.659-0.994-3.659-4.017
				c0-0.884,0.304-3.714,3.521-3.714c1.45,0,3.451,0.69,3.451,4.045v0.345h-5.039c0.055,0.552,0.166,1.795,1.726,1.795
				c0.539,0,1.091-0.276,1.243-0.801L99.439,53.915L99.439,53.915z M97.533,51.665c-0.11-1.187-0.87-1.546-1.491-1.546
				c-0.911,0-1.395,0.58-1.505,1.546H97.533z"/>
			<path fill="#FFFFFF" d="M102.794,56.069h-1.933v-9.913h1.933V56.069z"/>
			<path fill="#FFFFFF" d="M108.455,55.945c-0.911,2.72-1.16,3.079-2.844,3.079c-0.262,0-0.594-0.014-0.87-0.028V57.45
				c0.083,0.014,0.207,0.028,0.373,0.028c0.704,0,1.091-0.097,1.27-1.104l-2.706-7.649h2.154l1.574,5.412h0.028l1.505-5.412h2.043
				L108.455,55.945z"/>
			<path fill="#FFFFFF" d="M113.826,53.184l-1.035,2.886h-1.381l3.728-9.913h1.519l3.59,9.913h-1.463l-0.981-2.886H113.826z
				 M117.319,51.996l-1.463-4.363h-0.027l-1.588,4.363H117.319z"/>
			<path fill="#FFFFFF" d="M125.562,51.278c-0.152-0.967-0.69-1.546-1.712-1.546c-1.505,0-1.988,1.436-1.988,2.72
				c0,1.242,0.304,2.775,1.974,2.775c0.815,0,1.519-0.608,1.726-1.713h1.174c-0.124,1.146-0.828,2.762-2.941,2.762
				c-2.029,0-3.231-1.533-3.231-3.618c0-2.237,1.077-4.018,3.465-4.018c1.892,0,2.61,1.381,2.706,2.637L125.562,51.278
				L125.562,51.278z"/>
			<path fill="#FFFFFF" d="M129.442,49.856v4.694c0,0.566,0.483,0.566,0.732,0.566h0.428v0.953
				c-0.442,0.041-0.787,0.097-0.911,0.097c-1.201,0-1.464-0.677-1.464-1.546v-4.763h-0.98v-1.008h0.98v-2.016h1.215v2.016h1.16
				v1.008H129.442z"/>
			<rect x="131.817" y="46.156" fill="#F26A21" width="1.215" height="1.381"/>
			<rect x="131.817" y="48.849" fill="#FFFFFF" width="1.215" height="7.221"/>
			<path fill="#FFFFFF" d="M139.425,48.849h1.326l-2.748,7.221h-1.298l-2.637-7.221h1.408l1.878,5.882h0.028L139.425,48.849z"/>
			<path fill="#FFFFFF" d="M147.543,53.805c-0.042,0.346-0.373,1.367-1.284,1.974c-0.331,0.221-0.801,0.497-1.96,0.497
				c-2.03,0-3.231-1.533-3.231-3.618c0-2.237,1.077-4.018,3.465-4.018c2.085,0,3.106,1.657,3.106,4.211h-5.274
				c0,1.505,0.704,2.375,2.098,2.375c1.146,0,1.822-0.884,1.864-1.422L147.543,53.805L147.543,53.805z M146.383,51.886
				c-0.069-1.118-0.538-2.154-2.015-2.154c-1.118,0-2.002,1.036-2.002,2.154H146.383z"/>
			<rect x="80.344" y="57.45" fill="#0E71A3" width="22.45" height="1.546"/>
			<rect x="109.865" y="57.45" fill="#F26A21" width="37.679" height="1.546"/>
		</g>
	</g>
	<g>
		<path fill="#FFFFFF" d="M11.524,0c5.725,0,10.12,1.007,13.186,3.019c3.065,2.014,4.599,5.31,4.599,9.889
			c0,4.618-1.551,7.951-4.654,10c-3.102,2.05-7.534,3.075-13.297,3.075H8.643v12.854H0V0.997c1.884-0.369,3.878-0.628,5.984-0.776
			C8.089,0.074,9.936,0,11.524,0z M12.078,7.369c-0.628,0-1.246,0.019-1.856,0.055C9.613,7.461,9.086,7.498,8.643,7.535v11.081
			h2.714c2.992,0,5.244-0.406,6.759-1.219c1.515-0.812,2.272-2.327,2.272-4.543c0-1.071-0.194-1.957-0.582-2.659
			c-0.388-0.701-0.942-1.265-1.662-1.69c-0.72-0.424-1.598-0.72-2.632-0.886C14.479,7.451,13.333,7.369,12.078,7.369z"/>
		<path fill="#FFFFFF" d="M71.04,24.486c0-2.585,0.397-4.848,1.191-6.787c0.794-1.939,1.837-3.555,3.131-4.848
			c1.293-1.293,2.778-2.271,4.459-2.936c1.68-0.665,3.408-0.997,5.181-0.997c4.136,0,7.405,1.266,9.807,3.795
			c2.4,2.53,3.601,6.252,3.601,11.164c0,0.48-0.019,1.006-0.056,1.579c-0.037,0.573-0.074,1.081-0.111,1.524H79.517
			c0.184,1.699,0.978,3.047,2.383,4.045c1.403,0.997,3.287,1.495,5.651,1.495c1.514,0,3-0.138,4.459-0.415
			c1.459-0.277,2.65-0.618,3.574-1.025l1.108,6.704c-0.443,0.221-1.035,0.443-1.773,0.664c-0.74,0.221-1.561,0.415-2.465,0.582
			c-0.906,0.167-1.875,0.305-2.909,0.415c-1.035,0.111-2.068,0.167-3.102,0.167c-2.623,0-4.903-0.388-6.842-1.164
			c-1.939-0.775-3.546-1.837-4.82-3.186c-1.275-1.347-2.216-2.945-2.826-4.793C71.344,28.623,71.04,26.628,71.04,24.486z
			 M90.431,21.328c-0.037-0.701-0.158-1.385-0.361-2.05s-0.517-1.255-0.942-1.773c-0.425-0.517-0.961-0.942-1.607-1.274
			c-0.647-0.332-1.449-0.499-2.41-0.499c-0.924,0-1.718,0.158-2.382,0.471c-0.665,0.314-1.219,0.73-1.663,1.246
			c-0.443,0.518-0.785,1.118-1.025,1.801c-0.24,0.684-0.415,1.377-0.526,2.078H90.431z"/>
		<path fill="#FFFFFF" d="M70.121,15.928c0.794-1.939,1.837-3.555,3.131-4.848c0.32-0.32,0.653-0.621,0.997-0.903
			c-0.434-0.177-0.951-0.329-1.559-0.454c-0.628-0.129-1.256-0.24-1.883-0.333c-0.629-0.092-1.256-0.166-1.883-0.221
			c-0.629-0.055-1.164-0.083-1.607-0.083c-2.475,0-4.719,0.231-6.732,0.693c-2.014,0.462-3.759,0.951-5.235,1.468v27.591h8.255
			V16.566c0.369-0.111,0.914-0.212,1.634-0.305c0.72-0.092,1.338-0.139,1.856-0.139c1.019,0,1.97,0.094,2.872,0.255
			C70.021,16.23,70.062,16.072,70.121,15.928z"/>
		<path fill="#FFFFFF" d="M148.152,24.211c0,2.291-0.332,4.387-0.997,6.288c-0.665,1.903-1.626,3.528-2.882,4.876
			c-1.256,1.349-2.761,2.392-4.515,3.131c-1.755,0.738-3.721,1.108-5.9,1.108c-2.143,0-4.092-0.37-5.845-1.108
			c-1.755-0.739-3.261-1.782-4.516-3.131c-1.256-1.347-2.235-2.973-2.936-4.876c-0.702-1.901-1.053-3.997-1.053-6.288
			c0-2.29,0.361-4.377,1.081-6.26c0.72-1.884,1.718-3.491,2.992-4.82c1.275-1.33,2.789-2.363,4.544-3.102
			c1.753-0.738,3.665-1.108,5.734-1.108c2.105,0,4.034,0.37,5.789,1.108c1.754,0.739,3.259,1.773,4.515,3.102
			c1.255,1.33,2.235,2.937,2.937,4.82C147.801,19.834,148.152,21.922,148.152,24.211z M139.731,24.211
			c0-2.549-0.508-4.552-1.524-6.011c-1.016-1.459-2.465-2.189-4.349-2.189c-1.884,0-3.343,0.73-4.377,2.189
			c-1.035,1.459-1.551,3.462-1.551,6.011s0.517,4.571,1.551,6.066c1.034,1.496,2.493,2.244,4.377,2.244
			c1.883,0,3.333-0.748,4.349-2.244C139.222,28.782,139.731,26.76,139.731,24.211z"/>
		<path fill="#FFFFFF" d="M121.275,36.609c-1.218-1.307-2.17-2.88-2.866-4.709c-0.609,0.156-1.228,0.296-1.677,0.375
			c-0.942,0.166-1.856,0.249-2.743,0.249c-1.848,0-3.075-0.517-3.684-1.551c-0.609-1.034-0.914-2.418-0.914-4.156V16.568h9.917
			v-6.87h-9.917V1.11l-8.255,1.33v24.489c0,1.883,0.175,3.601,0.526,5.152c0.351,1.551,0.97,2.872,1.856,3.962
			c0.887,1.09,2.068,1.939,3.546,2.549c1.477,0.609,3.342,0.913,5.596,0.913c1.773,0,3.269-0.148,4.488-0.443
			c1.091-0.264,3.65-1.121,5.008-1.603C121.851,37.189,121.555,36.909,121.275,36.609z"/>
		<path fill="#FFFFFF" d="M52.467,15.901c-0.407-1.477-1.099-2.733-2.077-3.768c-0.979-1.034-2.281-1.828-3.906-2.383
			c-1.626-0.554-3.657-0.831-6.095-0.831c-0.96,0-1.911,0.047-2.853,0.139c-0.942,0.093-1.837,0.203-2.687,0.332
			c-0.85,0.13-1.634,0.277-2.355,0.443c-0.133,0.031-0.241,0.06-0.366,0.09c0.167,0.928,0.258,1.918,0.258,2.985
			c0,1.465-0.174,2.787-0.487,3.993c0.966-0.343,2.092-0.614,3.392-0.808c1.366-0.202,2.752-0.305,4.156-0.305
			c2.106,0,3.582,0.425,4.432,1.274c0.85,0.85,1.275,1.976,1.275,3.38v0.776c-0.518-0.148-1.191-0.268-2.022-0.36
			c-0.831-0.092-1.782-0.139-2.853-0.139c-1.588,0-3.122,0.158-4.599,0.471c-1.478,0.314-2.789,0.822-3.933,1.523
			c-1.145,0.702-2.06,1.644-2.743,2.826c-0.684,1.183-1.025,2.623-1.025,4.321c0,1.773,0.295,3.269,0.887,4.488
			c0.59,1.219,1.44,2.208,2.549,2.964c1.107,0.757,2.428,1.302,3.961,1.634c1.533,0.332,3.241,0.499,5.125,0.499
			c2.992,0,5.541-0.175,7.646-0.526c2.106-0.351,3.748-0.656,4.931-0.914V20.832C53.077,19.022,52.874,17.378,52.467,15.901z
			 M45.154,32.855c-0.443,0.074-1.035,0.129-1.773,0.166c-0.74,0.037-1.516,0.056-2.327,0.056c-1.515,0-2.706-0.25-3.574-0.749
			c-0.868-0.499-1.302-1.394-1.302-2.687c0-0.664,0.147-1.219,0.443-1.662c0.296-0.443,0.702-0.794,1.219-1.052
			c0.517-0.259,1.117-0.434,1.801-0.527c0.683-0.091,1.413-0.138,2.188-0.138c0.555,0,1.164,0.037,1.828,0.111
			c0.665,0.074,1.164,0.148,1.496,0.221V32.855z"/>
	</g>
</g>
</svg>
