<?xml version="1.0" encoding="utf-8"?>
<!-- Generator: Adobe Illustrator 17.0.0, SVG Export Plug-In . SVG Version: 6.00 Build 0)  -->
<!DOCTYPE svg PUBLIC "-//W3C//DTD SVG 1.1//EN" "http://www.w3.org/Graphics/SVG/1.1/DTD/svg11.dtd">
<svg version="1.1" id="Layer_1" xmlns="http://www.w3.org/2000/svg" xmlns:xlink="http://www.w3.org/1999/xlink" x="0px" y="0px"
	 width="110.443px" height="29.531px" viewBox="0 0 110.443 29.531" enable-background="new 0 0 110.443 29.531"
	 xml:space="preserve">
<g>
	<g>
		<path fill="#A7A9AC" d="M8.591,0c4.267,0,7.544,0.751,9.83,2.251c2.285,1.501,3.428,3.958,3.428,7.372
			c0,3.442-1.156,5.927-3.47,7.455c-2.313,1.528-5.617,2.292-9.912,2.292H6.443v9.582H0V0.743c1.405-0.275,2.891-0.468,4.461-0.578
			C6.03,0.055,7.407,0,8.591,0z M9.004,5.493c-0.468,0-0.929,0.014-1.384,0.041C7.166,5.562,6.774,5.59,6.443,5.617v8.26h2.023
			c2.231,0,3.91-0.303,5.039-0.909c1.129-0.605,1.694-1.735,1.694-3.387c0-0.798-0.145-1.459-0.434-1.982
			c-0.289-0.523-0.702-0.943-1.239-1.26c-0.537-0.316-1.191-0.537-1.962-0.661C10.793,5.555,9.94,5.493,9.004,5.493z"/>
		<path fill="#A7A9AC" d="M52.958,18.254c0-1.927,0.296-3.614,0.888-5.06c0.592-1.446,1.37-2.65,2.334-3.614
			c0.964-0.964,2.071-1.693,3.324-2.189c1.253-0.496,2.54-0.744,3.862-0.744c3.083,0,5.52,0.944,7.311,2.829
			c1.789,1.886,2.684,4.661,2.684,8.323c0,0.358-0.014,0.75-0.042,1.177c-0.028,0.427-0.055,0.806-0.083,1.136h-13.96
			c0.137,1.267,0.729,2.272,1.776,3.015c1.046,0.743,2.45,1.115,4.213,1.115c1.129,0,2.237-0.103,3.324-0.31
			c1.088-0.207,1.976-0.46,2.664-0.764l0.826,4.998c-0.33,0.165-0.771,0.33-1.321,0.495c-0.551,0.165-1.164,0.31-1.838,0.434
			c-0.675,0.124-1.398,0.227-2.169,0.31c-0.771,0.083-1.542,0.124-2.313,0.124c-1.955,0-3.655-0.289-5.101-0.868
			c-1.446-0.578-2.644-1.369-3.593-2.375c-0.95-1.005-1.652-2.195-2.107-3.573C53.185,21.338,52.958,19.851,52.958,18.254z
			 M67.414,15.899c-0.028-0.523-0.118-1.033-0.269-1.528c-0.151-0.496-0.386-0.936-0.702-1.322c-0.317-0.385-0.716-0.702-1.198-0.95
			c-0.482-0.248-1.08-0.372-1.796-0.372c-0.689,0-1.28,0.118-1.776,0.351c-0.496,0.234-0.909,0.544-1.24,0.929
			c-0.33,0.386-0.585,0.833-0.764,1.342c-0.179,0.51-0.31,1.026-0.392,1.549H67.414z"/>
		<path fill="#A7A9AC" d="M52.273,11.874c0.592-1.446,1.37-2.65,2.334-3.614c0.239-0.239,0.487-0.463,0.743-0.673
			c-0.324-0.132-0.709-0.245-1.162-0.338C53.72,7.152,53.252,7.069,52.784,7c-0.469-0.068-0.936-0.124-1.404-0.165
			c-0.469-0.041-0.868-0.062-1.198-0.062c-1.845,0-3.518,0.172-5.018,0.516c-1.501,0.345-2.802,0.709-3.903,1.095v20.568h6.154
			V12.349c0.275-0.083,0.682-0.158,1.218-0.227c0.537-0.068,0.997-0.103,1.384-0.103c0.759,0,1.468,0.07,2.141,0.19
			C52.199,12.099,52.229,11.981,52.273,11.874z"/>
		<path fill="#A7A9AC" d="M110.443,18.049c0,1.708-0.248,3.27-0.743,4.687c-0.496,1.418-1.212,2.63-2.148,3.635
			c-0.936,1.006-2.058,1.783-3.366,2.334c-1.308,0.55-2.774,0.826-4.398,0.826c-1.597,0-3.05-0.276-4.357-0.826
			c-1.308-0.551-2.431-1.328-3.367-2.334c-0.936-1.005-1.666-2.216-2.189-3.635c-0.524-1.417-0.785-2.98-0.785-4.687
			c0-1.707,0.269-3.263,0.806-4.667c0.537-1.404,1.28-2.602,2.23-3.593c0.95-0.991,2.079-1.762,3.387-2.313
			c1.307-0.55,2.732-0.826,4.275-0.826c1.569,0,3.007,0.276,4.316,0.826c1.308,0.551,2.43,1.321,3.366,2.313
			c0.936,0.991,1.666,2.189,2.189,3.593C110.182,14.786,110.443,16.342,110.443,18.049z M104.166,18.049
			c0-1.9-0.379-3.393-1.136-4.481c-0.757-1.088-1.838-1.631-3.242-1.631c-1.405,0-2.492,0.544-3.263,1.631
			c-0.771,1.088-1.156,2.581-1.156,4.481c0,1.9,0.385,3.408,1.156,4.522c0.771,1.115,1.858,1.673,3.263,1.673
			c1.404,0,2.484-0.557,3.242-1.673C103.787,21.456,104.166,19.949,104.166,18.049z"/>
		<path fill="#A7A9AC" d="M90.407,27.291c-0.908-0.974-1.617-2.147-2.136-3.51c-0.454,0.116-0.915,0.22-1.25,0.28
			c-0.703,0.124-1.384,0.186-2.045,0.186c-1.378,0-2.292-0.385-2.747-1.156c-0.454-0.771-0.682-1.803-0.682-3.098v-7.64h7.393V7.229
			h-7.393V0.828l-6.154,0.991v18.256c0,1.404,0.131,2.684,0.392,3.841c0.262,1.156,0.723,2.141,1.384,2.953
			c0.661,0.812,1.542,1.446,2.644,1.9c1.101,0.454,2.492,0.681,4.172,0.681c1.321,0,2.437-0.11,3.346-0.33
			c0.813-0.197,2.721-0.835,3.733-1.195C90.837,27.723,90.616,27.515,90.407,27.291z"/>
		<path fill="#A7A9AC" d="M39.113,11.854c-0.303-1.101-0.82-2.037-1.549-2.809c-0.73-0.771-1.7-1.363-2.912-1.776
			c-1.212-0.413-2.726-0.619-4.543-0.619c-0.716,0-1.425,0.035-2.127,0.103C27.28,6.822,26.612,6.904,25.979,7
			c-0.634,0.097-1.218,0.207-1.755,0.331c-0.099,0.023-0.18,0.044-0.273,0.067c0.124,0.692,0.192,1.43,0.192,2.225
			c0,1.092-0.13,2.077-0.363,2.977c0.72-0.256,1.56-0.458,2.529-0.602c1.018-0.151,2.051-0.227,3.098-0.227
			c1.57,0,2.671,0.317,3.304,0.95c0.633,0.634,0.95,1.473,0.95,2.519v0.578c-0.386-0.11-0.888-0.199-1.508-0.268
			c-0.619-0.069-1.329-0.103-2.127-0.103c-1.184,0-2.327,0.118-3.428,0.351c-1.102,0.234-2.079,0.613-2.932,1.136
			c-0.854,0.524-1.535,1.226-2.045,2.107c-0.51,0.882-0.764,1.955-0.764,3.221c0,1.322,0.22,2.437,0.661,3.346
			c0.44,0.909,1.074,1.646,1.9,2.21c0.826,0.565,1.81,0.971,2.953,1.218c1.142,0.248,2.416,0.372,3.82,0.372
			c2.231,0,4.131-0.131,5.7-0.392c1.57-0.262,2.794-0.489,3.676-0.682V15.529C39.567,14.181,39.416,12.955,39.113,11.854z
			 M33.661,24.492c-0.33,0.055-0.771,0.096-1.321,0.124c-0.551,0.028-1.13,0.042-1.735,0.042c-1.129,0-2.017-0.186-2.664-0.558
			c-0.647-0.372-0.971-1.039-0.971-2.003c0-0.495,0.11-0.909,0.33-1.239c0.221-0.33,0.523-0.592,0.909-0.785
			c0.386-0.193,0.833-0.324,1.343-0.393c0.509-0.068,1.053-0.103,1.631-0.103c0.413,0,0.868,0.028,1.363,0.083
			c0.496,0.055,0.868,0.11,1.115,0.165V24.492z"/>
	</g>
</g>
</svg>
