<?xml version="1.0" encoding="utf-8"?>
<!-- Generator: Adobe Illustrator 17.0.0, SVG Export Plug-In . SVG Version: 6.00 Build 0)  -->
<!DOCTYPE svg PUBLIC "-//W3C//DTD SVG 1.1//EN" "http://www.w3.org/Graphics/SVG/1.1/DTD/svg11.dtd">
<svg version="1.1" id="Layer_1" xmlns="http://www.w3.org/2000/svg" xmlns:xlink="http://www.w3.org/1999/xlink" x="0px" y="0px"
	 width="1000px" height="632.517px" viewBox="0 0 1000 632.517" enable-background="new 0 0 1000 632.517" xml:space="preserve">
<g>
	<g>
		<g>
			<polygon fill="#D1D3D4" points="219.987,350.325 283.618,387.063 313.307,369.922 313.307,358.948 249.676,322.21 
				219.987,339.351 			"/>
			<polygon fill="#FFFFFF" points="283.618,376.088 219.987,339.351 221.356,337.507 247.706,322.21 249.676,322.21 
				313.307,358.948 311.463,358.875 284.822,374.34 			"/>
			<polygon fill="#E6E7E8" points="284.822,374.34 283.618,376.088 219.987,339.351 221.356,337.507 			"/>
			<g opacity="0.7">
				<polygon fill="#BCBEC0" points="229.94,345.097 228.971,344.538 230.396,342.754 257.825,326.915 258.818,327.489 
					231.346,343.305 				"/>
			</g>
			<g opacity="0.7">
				<polygon fill="#BCBEC0" points="274.499,370.843 273.53,370.283 274.955,368.499 302.448,352.661 303.44,353.234 
					275.905,369.051 				"/>
			</g>
			
				<ellipse transform="matrix(0.9201 0.3916 -0.3916 0.9201 158.0346 -76.5375)" fill="#ADC742" cx="266.647" cy="349.149" rx="3.257" ry="2.511"/>
		</g>
		<g>
			<polygon fill="#F1F2F2" points="300.158,368.605 297.93,369.892 297.93,371.889 295.701,373.175 295.701,379.038 
				299.707,381.281 303.059,379.389 375.129,421.496 378.758,419.451 306.687,377.294 308.301,376.363 308.301,372.645 
				302.387,369.315 300.997,370.118 			"/>
		</g>
		<g>
			<polygon fill="#D1D3D4" points="367.472,435.367 431.103,472.104 460.792,454.963 460.792,443.989 397.161,407.252 
				367.472,424.392 			"/>
			<polygon fill="#FFFFFF" points="431.103,461.13 367.472,424.392 368.841,422.549 395.192,407.252 397.161,407.252 
				460.792,443.989 458.948,443.917 432.308,459.381 			"/>
			<polygon fill="#E6E7E8" points="432.308,459.381 431.103,461.13 367.472,424.392 368.841,422.549 			"/>
			<g opacity="0.7">
				<polygon fill="#BCBEC0" points="377.425,430.138 376.456,429.579 377.881,427.795 405.311,411.957 406.303,412.53 
					378.832,428.346 				"/>
			</g>
			<g opacity="0.7">
				<polygon fill="#BCBEC0" points="421.984,455.884 421.015,455.325 422.44,453.54 449.933,437.702 450.926,438.275 
					423.391,454.092 				"/>
			</g>
			
				<ellipse transform="matrix(0.9201 0.3916 -0.3916 0.9201 203.1195 -127.5038)" fill="#ADC742" cx="414.132" cy="434.191" rx="3.257" ry="2.511"/>
		</g>
		<path fill="none" stroke="#F1F2F2" stroke-width="3.7353" stroke-miterlimit="10" d="M450.749,462.096l73.489,42.776
			c0,0,23.812,19.141,50.058,3.993c26.246-15.148,0-30.295,0-30.295L259.408,296.764c0,0-27.417-15.829-0.59-30.641
			c26.827-14.812,53.064,0.34,53.064,0.34l78.725,45.447c0,0,25.896,14.75,25.896-15.35s0-30.1,0-30.1"/>
		<g>
			<polygon fill="#F1F2F2" points="455.308,462.104 456.922,461.173 456.922,457.455 451.008,454.125 449.618,454.927 
				448.779,453.415 446.55,454.701 446.55,456.698 444.322,457.985 444.322,463.847 448.328,466.091 451.68,464.199 			"/>
		</g>
		<circle fill="#F1F2F2" cx="521.813" cy="505.366" r="8.076"/>
		<circle fill="#F1F2F2" cx="508.696" cy="440.692" r="8.076"/>
		<circle fill="#F1F2F2" cx="377.49" cy="364.44" r="8.076"/>
		<circle fill="#F1F2F2" cx="247.046" cy="277.491" r="8.076"/>
		<circle fill="#F1F2F2" cx="416.503" cy="300.12" r="8.076"/>
	</g>
	<path fill="none" stroke="#FFFFFF" stroke-width="8.4893" stroke-miterlimit="10" d="M640.13,328.807l100.538,60.242
		c0,0,25.266,16.909,25.266-13.233c0-30.142,0-218.238,0-218.238s-0.417-31.091,27.216-14.592s33,19.057,33,19.057"/>
	<path fill="none" stroke="#FFFFFF" stroke-width="8.4893" stroke-miterlimit="10" d="M765.934,299.789
		c0,0-0.417-30.849,27.216-14.35s33,19.057,33,19.057"/>
	<g>
		<path fill="#FFFFFF" d="M591.979,279.022c0-39.541-22.983-84.944-51.571-102.329C521.596,83.761,441.332,14.464,400.651,58.363
			c-16.154-24.605-39.396-24.584-42.359,0.873c-28.346-16.607-52.252,0.951-53.174,39.484
			c-48.769-43.208-51.458,64.956-3.294,85.049l155.319,89.674c3.945,2.714,7.89,4.992,11.835,6.833l65.287,37.694
			c3.296,2.34,6.592,4.243,9.889,5.709l0,0l0,0C570.979,335.734,591.979,316.82,591.979,279.022z"/>
		<g>
			<path fill="#FFFFFF" d="M516.728,264.504c4.24,2.917,8.481,5.365,12.721,7.344L349.79,168.122L516.728,264.504z"/>
			<path fill="#FFFFFF" d="M395.842,20.85c0,0-12.478-8.567-21.974-10.202c-22.126-3.811-29.365,20.6-29.365,20.6
				c-5.325-1.686-10.501-2.536-15.491-2.536c-13.39-0.001-24.999,6.219-32.688,17.512c-3.582,5.262-6.298,11.55-8.133,18.808
				c-3.181-0.938-6.334-1.409-9.45-1.409c-16.931,0-29.696,13.267-34.145,35.49c-3.335,16.655-1.665,36.955,4.466,54.303
				c7.327,20.729,20.42,36.062,36.932,43.291l165.755,95.699c4.517,3.074,9.116,5.73,13.688,7.902l69.126,39.91
				c4.102,2.863,8.296,5.254,12.476,7.114c7.5,3.371,15.018,5.091,22.299,5.091c3.861,0,7.596-0.493,11.17-1.434l-0.025,0.037
				c0,0,34.697-10.22,49.44-14.675c14.743-4.455,27.751-7.047,36.559-19.842c7.976-11.586,12.192-27.496,12.192-46.009
				c0-44.801-24.617-95.354-56.938-118.479c-8.549-37.486-26.138-73.144-49.885-100.953c-25.081-29.372-54.363-46.22-80.338-46.225
				c-11.092,0-21.426,2.997-30.516,8.774c-9.067-9.001-14.474-14.773-33.982-13.423S395.842,20.85,395.842,20.85z M400.709,29.515
				c-0.097,0.061-0.199,0.112-0.297,0.174c-0.153-0.152-0.31-0.293-0.463-0.443C400.203,29.339,400.453,29.417,400.709,29.515z
				 M552.718,334.569L552.718,334.569c-3.543-1.576-7.086-3.622-10.629-6.136l-70.171-40.513c-4.24-1.979-8.481-4.427-12.721-7.344
				l-166.938-96.382c-44.301-18.482-44.919-106.601-13.517-106.601c5.799,0,12.696,3.01,20.605,10.017
				c0.706-29.491,12.138-44.929,29.665-44.928c7.086,0,15.169,2.524,23.94,7.663c1.606-13.804,8.759-20.65,17.684-20.649
				c8.765,0.001,19.241,6.606,27.844,19.71c9.255-9.987,20.408-14.523,32.446-14.521c44.832,0.007,101.827,62.962,117.766,141.704
				c30.727,18.685,55.429,67.485,55.429,109.984c0,32.393-14.35,51.882-34.782,51.882
				C564.146,338.454,558.56,337.195,552.718,334.569z"/>
		</g>
		<g id="Jf4zfm_5_">
			<g>
				<path fill="#FE6F0A" d="M494.122,267.975c-22.991-13.274-45.981-26.56-68.972-39.785c-1.212-0.697-1.616-1.328-1.601-3.055
					c0.047-5.563-0.003-5.593,4.121-3.212c45.188,26.091,90.377,52.187,135.565,78.246c1.124,0.648,1.676,1.295,1.543,2.925
					c-0.095,1.158-0.098,2.407-0.001,3.675c0.136,1.783-0.406,1.801-1.535,1.148c-23.04-13.34-46.08-26.633-69.12-39.935
					C494.122,267.979,494.122,267.977,494.122,267.975z"/>
				<path fill="#231F20" d="M346.532,151.703c-2.726-1.573-5.452-3.143-8.178-4.724c-0.622-0.361-1.159-0.742-1.105,0.6
					c0.263,6.534,5.256,13.16,9.252,12.218c0.377-0.089,0.856-0.19,0.994-0.608c0.557-1.684,1.715-0.928,2.932-0.166
					c1.139,0.713,2.28,1.319,3.42,1.984c1.827,1.066,1.937,1.444,1.163,3.393c-1.467,3.696-4.031,5.053-7.419,4.421
					c-3.586-0.668-7.191-3.102-10.616-7.102c-3.7-4.321-5.675-9.602-6.489-15.391c-0.919-6.539-0.878-12.397,1.077-16.94
					c2.609-6.059,8.674-4.921,13.952-0.684c6.994,5.613,9.896,14.217,10.402,23.279c0.296,5.299,0.217,5.262-3.437,3.152
					C350.498,153.992,348.515,152.847,346.532,151.703z M342.965,143.145c0-0.003,0-0.007,0-0.01
					c1.484,0.857,2.969,1.722,4.453,2.567c0.654,0.373,1.133,0.552,0.983-0.825c-0.429-3.924-2.477-7.77-5.117-9.425
					c-2.941-1.844-5.019-0.75-5.657,2.742c-0.267,1.463,0.183,2.022,1.183,2.563C340.193,141.507,341.579,142.345,342.965,143.145z"
					/>
				<path fill="#231F20" d="M375.357,168.345c-2.726-1.572-5.452-3.113-8.178-4.738c-0.933-0.556-1.159-0.276-1.054,1.081
					c0.599,7.732,5.628,11.93,8.777,11.768c0.468-0.024,0.998-0.053,1.168-0.519c0.723-1.981,2.177-0.891,3.613-0.02
					c1.189,0.72,2.38,1.414,3.568,2.059c0.997,0.541,1.191,1.136,0.829,2.208c-1.367,4.044-3.858,5.809-7.416,5.274
					c-3.676-0.553-7.348-3.045-10.892-7.104c-3.346-3.833-5.32-8.572-6.264-13.843c-1.242-6.934-1.264-13.087,0.62-18.028
					c2.564-6.725,8.815-5.499,14.253-1.089c6.672,5.41,9.916,13.656,10.383,24.4c0.216,4.955,0.206,4.044-2.718,2.405
					C379.818,170.949,377.587,169.631,375.357,168.345z M371.818,159.803c0-0.003,0-0.005,0-0.008c1.48,0.854,2.96,1.708,4.44,2.564
					c0.595,0.344,1.151,0.577,0.969-0.657c-0.538-3.663-1.984-7.649-5.149-9.62c-3.027-1.886-5.275-0.736-5.722,2.824
					c-0.137,1.092,0.018,1.824,1.022,2.353C368.857,158.038,370.338,158.948,371.818,159.803z"/>
				<path fill="#231F20" d="M404.398,163.345c3.863,2.152,3.921,2.161,5.062,7.917c1.466,7.401,2.826,14.786,4.23,22.178
					c0.07,0.366,0.081,0.733,0.189,1.093c0.166,0.555,0.201,1.269,0.658,1.563c0.102,0.066,0.255-0.658,0.347-1.055
					c1.627-7.039,3.27-14.062,4.845-21.149c0.222-1.001,0.596-1.336,1.391-0.889c1.784,1.003,3.568,2.02,5.352,3.085
					c1.332,0.795,1.062,1.804,0.784,2.738c-1.792,6.021-3.586,12.04-5.391,18.049c-1.804,6.006-3.601,12.019-5.447,17.981
					c-0.384,1.241-0.9,2.36-1.47,3.376c-1.153,2.055-2.772,2.74-5.221,1.046c-1.378-0.953-2.776-1.703-4.16-2.402
					c-1.005-0.507-1.313-1.227-1.247-2.499c0.065-1.252,0.09-2.548-0.006-3.886c-0.125-1.732,0.345-1.869,1.504-1.159
					c2.737,1.678,3.824,1.119,4.492-1.719c0.352-1.494-0.261-3.241-0.624-4.883c-2.933-13.236-5.901-26.475-8.91-39.718
					c-0.402-1.768-0.034-1.844,0.955-1.217C402.618,162.357,403.509,162.832,404.398,163.345z"/>
				<path fill="#0F75A6" d="M354.989,187.642c-13.472-7.779-26.945-15.582-40.417-23.295c-1.277-0.731-1.701-1.346-1.675-3.195
					c0.077-5.438,0.013-5.474,4.053-3.142c26.152,15.1,52.305,30.213,78.457,45.26c1.359,0.782,1.774,1.504,1.743,3.392
					c-0.084,5.272-0.021,5.31-3.974,3.028C380.448,202.341,367.719,194.992,354.989,187.642z"/>
				<path fill="#231F20" d="M459.511,233.158c-2.669-1.529-2.634-1.524-3.433-5.483c-0.74-3.667-1.566-7.347-2.353-11.021
					c-0.257-1.2-0.644-2.024-1.592-2.554c-4.161-2.325-8.324-4.745-12.486-7.201c-0.951-0.561-1.413-0.349-1.714,0.72
					c-0.921,3.269-1.937,6.438-2.9,9.663c-0.309,1.034-0.771,1.358-1.83,0.737c-3.847-2.257-3.867-2.211-2.504-6.431
					c4.036-12.489,8.103-24.944,12.11-37.465c0.359-1.123,0.84-1.271,1.832-0.703c4.311,2.467,4.359,2.433,5.794,8.656
					c3.885,16.852,7.723,33.7,11.586,50.55c0.364,1.588,0.148,2.196-1.023,1.396C460.504,233.686,460.006,233.442,459.511,233.158z
					 M445.564,204.117c0,0.004,0,0.008,0,0.012c1.482,0.856,2.966,1.664,4.447,2.584c1.004,0.624,1.395,0.376,1.06-1.193
					c-1.522-7.113-3.037-14.226-4.571-21.341c-0.106-0.493-0.33-1.312-0.524-1.441c-0.511-0.339-0.466,0.504-0.587,0.883
					c-1.7,5.306-3.365,10.652-5.048,15.977c-0.285,0.902-0.053,1.494,0.777,1.958C442.598,202.386,444.081,203.261,445.564,204.117z
					"/>
				<path fill="#231F20" d="M555.181,271.956c-2.823-1.63-5.647-3.251-8.47-4.897c-0.77-0.449-1.328-0.669-1.314,0.756
					c0.046,4.509,1.868,9.505,4.64,12.522c3.052,3.32,6.642,4.268,8.736,2.296c0.232-0.218,0.446-0.472,0.644-0.746
					c0.44-0.607,0.398-2.17,1.176-1.954c1.089,0.303,2.273,1.087,3.4,1.884c1.143,0.809,0.577,1.708,0.401,2.254
					c-1.228,3.83-3.34,5.999-6.714,5.862c-5.098-0.207-11.589-6.264-14.586-13.785c-2.527-6.34-2.974-12.128-2.474-17.605
					c0.313-3.432,1.039-6.451,2.583-8.588c3.089-4.278,7.927-3.064,12.762,0.927c4.541,3.747,7.724,10.762,8.563,18.056
					c0.239,2.081,0.52,4.17,0.598,6.205c0.074,1.937-0.253,2.546-1.773,1.576C560.634,274.986,557.906,273.53,555.181,271.956z
					 M552.813,265.456c2.127,1.228,4.253,2.456,6.38,3.683c0.573,0.331,1.148,0.649,1.069-0.529
					c-0.245-3.666-1.007-7.371-3.409-10.525c-5.241-6.881-10.565-5.284-11.412,1.658c-0.144,1.178,0.377,1.7,1.14,2.129
					C548.659,263.039,550.736,264.26,552.813,265.456z"/>
				<path fill="#231F20" d="M463.713,218.12c-0.057-5.979,0.762-10.607,3.405-13.354c4.398-4.57,13.163,0.052,17.261,9.073
					c1.391,3.061,1.955,6.132,2.341,9.186c0.04,0.319-0.02,0.721-0.161,0.847c-0.806,0.72-4.247-2.409-4.535-4.13
					c-0.699-4.179-2.517-7.232-5.261-9.165c-2.581-1.818-4.961-2.228-6.286,0.221c-2.708,5.006-2.604,11.948-0.273,19.982
					c1.102,3.798,3.368,6.238,5.872,7.503c3.061,1.546,4.812-0.016,5.824-3.161c0.219-0.682,0.15-1.917,0.913-1.609
					c1.215,0.49,2.472,1.081,3.678,2.236c0.414,0.397,0.225,0.915,0.161,1.348c-1.019,6.849-4.456,9.456-9.557,7.234
					c-5.587-2.434-10.139-8.75-12.268-16.875C463.912,223.965,463.651,220.759,463.713,218.12z"/>
				<path fill="#231F20" d="M312.938,129.714c0-5.658,0.033-11.298-0.022-16.986c-0.015-1.581,0.281-2.074,1.504-1.239
					c1.33,0.908,2.676,1.631,4.011,2.321c1.15,0.594,1.604,1.452,1.555,3.044c-0.031,1-0.429,2.332,0.322,3.135
					c0.545,0.583,0.854-0.912,1.289-1.442c1.58-1.925,3.71-1.772,6.223-0.329c0.725,0.416,1.119,0.979,1.113,2.048
					c-0.014,2.514-0.014,5.036,0.004,7.569c0.008,1.107-0.387,1.147-1.122,0.68c-1.336-0.848-2.693-1.666-3.973-1.788
					c-2.408-0.229-3.487,1.778-3.564,5.014c-0.13,5.439-0.062,11.001-0.081,16.509c-0.003,0.952-0.062,1.874-0.031,2.843
					c0.042,1.296-0.409,1.423-1.267,0.901c-1.535-0.934-3.074-1.852-4.607-2.645c-1.037-0.536-1.384-1.247-1.373-2.672
					C312.965,141.046,312.938,135.372,312.938,129.714z"/>
				<path fill="#231F20" d="M397.116,171.556c-0.001,7.831-0.031,15.645,0.024,23.507c0.012,1.64-0.406,1.962-1.537,1.261
					c-1.434-0.889-2.873-1.731-4.305-2.464c-1.13-0.579-1.436-1.427-1.433-2.889c0.026-15.715,0.031-31.443-0.008-47.196
					c-0.004-1.57,0.369-1.807,1.451-1.099c1.382,0.904,2.776,1.725,4.155,2.397c1.255,0.61,1.709,1.345,1.689,3.216
					C397.068,156.001,397.117,163.793,397.116,171.556z"/>
				<path fill="#231F20" d="M517.018,229.012c2.507,1.443,2.537,1.447,3.332,5.303c1.906,9.243,3.782,18.482,5.662,27.721
					c0.132,0.65,0.105,1.475,0.633,1.822c0.625,0.411,0.471-0.629,0.6-1.062c2.185-7.318,4.366-14.64,6.49-22.021
					c0.394-1.369,0.965-1.653,2.24-0.865c3.349,2.07,3.368,1.998,2.187,5.586c-2.913,8.847-5.859,17.658-8.742,26.538
					c-0.3,0.924-0.7,1.049-1.497,0.641c-3.635-1.862-3.69-1.841-4.938-7.181c-2.8-11.987-5.529-23.97-8.317-35.957
					c-0.407-1.749-0.094-2.074,1.014-1.303C516.124,228.542,516.573,228.757,517.018,229.012z"/>
				<path fill="#231F20" d="M492.365,234.127c0-3.951-0.047-7.93,0.022-11.839c0.029-1.623-0.301-2.488-1.571-3.18
					c-2.11-1.149-2.816-3.091-2.182-5.582c0.252-0.988,0.897-0.371,1.456-0.053c2.55,1.451,2.256,1.604,2.274-1.915
					c0.008-1.63,0.088-3.229-0.02-4.913c-0.117-1.823,0.451-2.056,1.603-1.325c0.591,0.375,1.192,0.779,1.774,1.01
					c0.959,0.381,1.224,1.145,1.209,2.325c-0.029,2.162,0.087,4.42-0.034,6.516c-0.106,1.828,0.447,2.718,1.698,3.215
					c0.292,0.116,0.6,0.387,0.889,0.489c1.422,0.502,1.905,1.567,1.84,3.504c-0.093,2.776-0.008,2.831-2.128,1.601
					c-2.269-1.316-2.27-1.317-2.27,1.793c0,6.744-0.005,13.484,0.005,20.234c0.004,2.874,0.652,4.123,2.748,5.388
					c0.812,0.49,1.67,0.624,1.649,2.562c-0.037,3.355-0.018,3.465-1.681,2.737c-5.209-2.282-7.544-5.825-7.297-13.383
					C492.447,240.31,492.365,237.193,492.365,234.127z"/>
				<path fill="#231F20" d="M510.498,243.975c0,5.445-0.043,10.867,0.024,16.349c0.022,1.813-0.44,2.144-1.721,1.371
					c-3.457-2.083-3.05-1.28-3.056-5.849c-0.014-10.354,0.022-20.679-0.036-31.058c-0.01-1.794,0.352-2.18,1.671-1.352
					c3.415,2.143,3.115,1.173,3.117,6.041C510.501,234.311,510.499,239.143,510.498,243.975z"/>
				<path fill="#FE6F0A" d="M510.493,215.078c0.006,4.095,0.27,3.788-2.564,2.155c-2.182-1.258-2.213-1.276-2.178-4.384
					c0.052-4.686-0.55-4.291,2.939-2.462c1.376,0.721,2.068,1.581,1.812,3.479C510.453,214.231,510.495,214.673,510.493,215.078z"/>
			</g>
		</g>
	</g>
	<g>
		<g>
			<g enable-background="new    ">
				<g>
					<path fill="#D1D3D4" d="M980.812,23.187l9.683,5.627c-5.864-3.408-13.983-2.928-22.944,2.246
						c-3.5,2.021-6.858,4.616-10.013,7.619l-9.684-5.628c3.155-3.003,6.513-5.598,10.013-7.618
						C966.829,20.259,974.949,19.779,980.812,23.187z"/>
					<path fill="#D1D3D4" d="M842.806,64.907c7.851-4.533,15.218-6.413,21.607-5.952c8.942-16.461,21.835-31.002,36.186-39.288
						c13.646-7.879,26.005-8.607,34.93-3.42l9.684,5.627c-8.926-5.187-21.284-4.458-34.931,3.42
						c-14.351,8.286-27.244,22.827-36.186,39.288c-6.389-0.461-13.756,1.42-21.607,5.952
						c-24.273,14.014-43.893,47.988-43.814,75.889c0.039,13.856,4.933,23.606,12.824,28.192l-9.683-5.627
						c-7.891-4.586-12.785-14.336-12.824-28.192C798.912,112.895,818.533,78.92,842.806,64.907z"/>
				</g>
				<g>
					<path fill="#FFFFFF" d="M910.282,25.294c-14.351,8.286-27.244,22.827-36.186,39.288c-6.389-0.461-13.756,1.42-21.607,5.952
						c-24.273,14.014-43.893,47.988-43.814,75.889c0.079,27.891,19.828,39.145,44.101,25.132l114.986-66.387
						c17.808-10.281,32.2-35.209,32.142-55.671c-0.058-20.462-14.544-28.717-32.352-18.436c-3.5,2.021-6.858,4.616-10.013,7.619
						C951.516,18.662,932.625,12.394,910.282,25.294z"/>
				</g>
			</g>
		</g>
		<g>
			<g>
				<g enable-background="new    ">
					<g>
						<polygon fill="#266780" points="926.763,118.649 915.842,112.302 915.651,44.88 926.572,51.227 						"/>
					</g>
					<g>
						<polygon fill="#0A6B91" points="926.572,51.227 915.651,44.88 930.301,36.422 941.222,42.769 						"/>
					</g>
					<g>
						<polygon fill="#0A70A2" points="941.222,42.769 941.413,110.191 926.763,118.649 926.572,51.227 						"/>
					</g>
				</g>
				<g enable-background="new    ">
					<g>
						<polygon fill="#D25627" points="907.439,129.806 896.518,123.459 896.429,91.986 907.35,98.333 						"/>
					</g>
					<g>
						<polygon fill="#D85E39" points="907.35,98.333 896.429,91.986 911.076,83.53 921.997,89.876 						"/>
					</g>
					<g>
						<polygon fill="#F16A22" points="921.997,89.876 922.086,121.349 907.439,129.806 907.35,98.333 						"/>
					</g>
				</g>
				<g enable-background="new    ">
					<g>
						<polygon fill="#8F9D3E" points="888.115,140.963 877.194,134.616 877.043,81.305 887.964,87.651 						"/>
					</g>
					<g>
						<polygon fill="#A3B535" points="887.964,87.651 877.043,81.305 891.69,72.848 902.611,79.195 						"/>
					</g>
					<g>
						<polygon fill="#ADC742" points="902.611,79.195 902.762,132.506 888.115,140.963 887.964,87.651 						"/>
					</g>
				</g>
				<g enable-background="new    ">
					<g>
						<polygon fill="#11100F" points="868.791,152.119 857.87,145.773 857.765,108.928 868.686,115.275 						"/>
					</g>
					<g>
						<polygon fill="#474747" points="868.686,115.275 857.765,108.928 872.412,100.472 883.334,106.819 						"/>
					</g>
					<g>
						<polygon fill="#5A5B5B" points="883.334,106.819 883.438,143.663 868.791,152.119 868.686,115.275 						"/>
					</g>
				</g>
			</g>
		</g>
	</g>
	<g>
		<g>
			<g enable-background="new    ">
				<g>
					<path fill="#D1D3D4" d="M980.812,158.646l9.683,5.627c-5.864-3.408-13.983-2.928-22.944,2.246
						c-3.5,2.021-6.858,4.616-10.013,7.619l-9.684-5.628c3.155-3.003,6.513-5.598,10.013-7.618
						C966.829,155.718,974.949,155.238,980.812,158.646z"/>
					<path fill="#D1D3D4" d="M842.806,200.365c7.851-4.533,15.218-6.413,21.607-5.952c8.942-16.461,21.835-31.002,36.186-39.288
						c13.646-7.879,26.005-8.607,34.93-3.42l9.684,5.627c-8.926-5.187-21.284-4.458-34.931,3.42
						c-14.351,8.286-27.244,22.827-36.186,39.288c-6.389-0.461-13.756,1.42-21.607,5.952
						c-24.273,14.014-43.893,47.988-43.814,75.889c0.039,13.856,4.933,23.606,12.824,28.192l-9.683-5.627
						c-7.891-4.586-12.785-14.336-12.824-28.192C798.912,248.353,818.533,214.379,842.806,200.365z"/>
				</g>
				<g>
					<path fill="#FFFFFF" d="M910.379,160.72c-14.351,8.286-27.244,22.827-36.186,39.288c-6.389-0.461-13.756,1.42-21.607,5.952
						c-24.273,14.014-43.893,47.988-43.814,75.889c0.079,27.891,19.828,39.145,44.101,25.132l114.986-66.387
						c17.808-10.281,32.2-35.209,32.142-55.671c-0.058-20.462-14.544-28.717-32.352-18.436c-3.5,2.021-6.858,4.616-10.013,7.619
						C951.613,154.088,932.722,147.821,910.379,160.72z"/>
				</g>
			</g>
		</g>
	</g>
	
		<line fill="none" stroke="#FFFFFF" stroke-width="8.4893" stroke-miterlimit="10" x1="737.72" y1="387.271" x2="824.17" y2="437.255"/>
	<g>
		<g>
			<g enable-background="new    ">
				<g>
					<path fill="#D1D3D4" d="M980.812,294.864l9.683,5.627c-5.864-3.408-13.983-2.928-22.944,2.246
						c-3.5,2.021-6.858,4.616-10.013,7.619l-9.684-5.628c3.155-3.003,6.513-5.598,10.013-7.618
						C966.829,291.936,974.949,291.457,980.812,294.864z"/>
					<path fill="#D1D3D4" d="M842.806,336.584c7.851-4.533,15.218-6.413,21.607-5.952c8.942-16.461,21.835-31.002,36.186-39.288
						c13.646-7.879,26.005-8.607,34.93-3.42l9.684,5.627c-8.926-5.187-21.284-4.458-34.931,3.42
						c-14.351,8.286-27.244,22.827-36.186,39.288c-6.389-0.461-13.756,1.42-21.607,5.952
						c-24.273,14.014-43.893,47.988-43.814,75.889c0.039,13.856,4.933,23.606,12.824,28.192l-9.683-5.627
						c-7.891-4.586-12.785-14.336-12.824-28.192C798.912,384.572,818.533,350.598,842.806,336.584z"/>
				</g>
				<g>
					<path fill="#FFFFFF" d="M910.282,296.971c-14.351,8.286-27.244,22.827-36.186,39.288c-6.389-0.461-13.756,1.42-21.607,5.952
						c-24.273,14.014-43.893,47.988-43.814,75.889c0.079,27.891,19.828,39.146,44.101,25.132l114.986-66.387
						c17.808-10.281,32.2-35.209,32.142-55.671c-0.058-20.462-14.544-28.717-32.352-18.436c-3.5,2.021-6.858,4.616-10.013,7.619
						C951.516,290.339,932.625,284.072,910.282,296.971z"/>
				</g>
			</g>
		</g>
	</g>
	<g opacity="0.7">
		<path fill="none" stroke="#FFFFFF" stroke-width="7.2329" stroke-miterlimit="10" d="M398.818,528.544
			c3.412-6.259,1.559-13.573-5.81-19.014l0,0c-7.369-5.441-18.35-7.604-28.416-6.257"/>
		<path fill="none" stroke="#FFFFFF" stroke-width="4.3397" stroke-miterlimit="10" d="M386.941,528.135
			c2.324-4.262,1.062-9.243-3.957-12.949l0,0c-5.019-3.706-12.497-5.178-19.351-4.261"/>
		<path fill="none" stroke="#FFFFFF" stroke-width="4.3397" stroke-miterlimit="10" d="M376.595,527.888
			c1.392-2.554,0.636-5.538-2.37-7.758l0,0c-3.007-2.22-7.487-3.102-11.593-2.553"/>
	</g>
	<g>
		<g>
			<polygon fill="#E6E7E8" points="362.323,521.202 362.323,521.191 362.322,521.191 			"/>
			<path fill="#E6E7E8" d="M362.323,521.213c-0.017,0.437-0.277,0.949-1.066,1.472c-1.21,0.802-102.641,60.994-102.641,60.994
				c1.459,2.3,2.256,4.784,2.256,7.375c0,11.841-16.626,21.44-37.136,21.44c-20.509,0-37.136-9.599-37.136-21.44
				c0,0,0,8.182,0,20.023c0,11.841,16.626,21.44,37.136,21.44c20.51,0,37.136-9.599,37.136-21.44c0-2.591-0.029-7.469-0.029-7.469
				s99.204-60.099,100.414-60.9c0.847-0.561,1.085-1.11,1.067-1.567C362.297,540.466,362.322,521.447,362.323,521.213z"/>
		</g>
		<path fill="#FFFFFF" d="M343.281,511.838c-1.758,1.046-101.675,60.419-101.675,60.419c-5.302-1.684-11.391-2.644-17.87-2.644
			c-20.509,0-37.136,9.599-37.136,21.44c0,11.841,16.626,21.44,37.136,21.44c20.51,0,37.136-9.599,37.136-21.44
			c0-2.591-0.797-5.075-2.256-7.375c0,0,101.431-60.193,102.641-60.994c2.11-1.398,0.442-2.722,0.442-2.722l-15.101-8.129
			C346.598,511.834,345.039,510.792,343.281,511.838z"/>
		<path fill="#CC1B1B" d="M353.201,521.829l-9.07-4.638l-103.662,61.481c-4.575-2.074-10.368-3.323-16.683-3.323
			c-14.766,0-26.736,6.783-26.736,15.151c0,8.367,11.97,15.15,26.736,15.15s26.736-6.783,26.736-15.15
			c0-2.282-0.916-4.438-2.51-6.379L353.201,521.829z"/>
		
			<line fill="none" stroke="#FFFFFF" stroke-width="1.6979" stroke-linecap="round" stroke-linejoin="round" stroke-miterlimit="10" x1="254.276" y1="573.718" x2="261.137" y2="577.68"/>
		
			<line fill="none" stroke="#FFFFFF" stroke-width="1.6979" stroke-linecap="round" stroke-linejoin="round" stroke-miterlimit="10" x1="280.506" y1="558.56" x2="287.368" y2="562.522"/>
		
			<line fill="none" stroke="#FFFFFF" stroke-width="1.6979" stroke-linecap="round" stroke-linejoin="round" stroke-miterlimit="10" x1="306.748" y1="543.412" x2="313.609" y2="547.373"/>
		
			<line fill="none" stroke="#FFFFFF" stroke-width="1.6979" stroke-linecap="round" stroke-linejoin="round" stroke-miterlimit="10" x1="332.989" y1="528.262" x2="339.85" y2="532.223"/>
	</g>
	<g>
		<path fill="#E6E7E8" d="M0,452.915c0,0,0.001,13.307,0,15.152c-0.001,1.847,1.212,3.695,3.639,5.096l56.46,32.832
			c2.426,1.401,5.624,2.101,8.822,2.101c3.198,0,6.396-0.7,8.823-2.101l113.566-65.568c2.426-1.401,3.639-3.247,3.639-5.093
			c0-1.846,0-15.776,0-15.776L0,452.915z"/>
		<path fill="#FFFFFF" d="M134.846,382.255c-2.426-1.401-5.623-2.101-8.821-2.101c-3.198,0-6.397,0.7-8.823,2.101L3.639,447.824
			c-2.425,1.4-3.638,3.245-3.639,5.091c-0.001,1.847,1.212,3.695,3.639,5.096l56.46,32.832c2.426,1.401,5.624,2.101,8.822,2.101
			c3.198,0,6.396-0.7,8.823-2.101l113.566-65.568c2.426-1.401,3.639-3.247,3.639-5.093c0-1.846-1.213-3.693-3.639-5.094
			L134.846,382.255z"/>
		<polygon fill="#27AAE1" points="15.818,440.828 89.913,483.844 183.183,430.157 106.425,388.477 		"/>
	</g>
	<g>
		<g>
			<path fill="#A3B535" d="M819.973,277.538c0-14.366,11.798-32.489,26.202-40.806c7.287-4.207,14.062-5.225,18.984-3.353
				c-4.974-3.357-13.46-6.798-24.387-0.489c-17.926,10.349-25.522,28.268-25.522,40.771c0,7.191,5.299,14.203,10.358,16.213
				C822.018,287.53,819.973,283.512,819.973,277.538z"/>
			<path fill="#A3B535" d="M825.81,290.017l-2.963,10.046l4.991,2.4l2.621-10.595C829.578,291.669,826.592,290.329,825.81,290.017z"
				/>
		</g>
		<path fill="#D1D3D4" d="M849.462,280.266c0-12.072,9.818-27.58,22.286-34.778c5.77-3.332,11.227-4.115,15.295-2.632
			c-4.157-2.938-10.687-2.631-17.672,1.402c-12.467,7.198-22.286,22.706-22.286,34.778c0,6.273,2.646,10.401,6.93,11.924
			C851.152,288.919,849.462,285.277,849.462,280.266z"/>
		<path fill="none" d="M876.333,257.952c0-1.505,1.306-3.774,2.602-4.523c1.963-1.134,3.279-0.379,3.279,1.127
			c0,1.528-1.316,3.78-3.279,4.913C877.639,260.218,876.333,259.48,876.333,257.952 M849.462,280.266
			c0,12.092,9.819,16.243,22.286,9.045c2.609-1.506,5.241-3.785,7.862-6.056l7.188,0.387l-1.971-6.408
			c5.26-7.583,9.177-15.874,9.177-22.684c0-12.072-10.482-15.86-22.256-9.062C859.281,252.685,849.462,268.194,849.462,280.266"/>
		<path fill="none" d="M833.717,260.53c0-2.271,1.982-4.91,3.946-6.044c1.964-1.134,3.271-0.393,3.271,1.878
			c0,2.266-1.307,4.534-3.271,5.668C835.699,263.165,833.717,262.796,833.717,260.53 M852.067,249.936
			c0-2.271,1.971-4.904,3.934-6.037c1.973-1.139,3.28-0.398,3.28,1.872c0,2.266-1.307,4.534-3.28,5.673
			C854.037,252.578,852.067,252.202,852.067,249.936 M819.973,277.538c0,8.295,3.925,12.835,10.485,14.331l-2.621,10.595l9.16-10.58
			c3.278-1.146,5.907-1.894,9.178-3.783c0.822-0.475,1.637-0.994,2.446-1.533c-0.512-1.722-0.809-3.664-0.809-5.859
			c0-13.191,9.831-29.571,22.278-36.757c0.849-0.49,1.689-0.905,2.523-1.279c-2.268-10.856-13.554-13.379-26.437-5.941
			C831.771,245.049,819.973,263.172,819.973,277.538"/>
		<path fill="#ADC742" d="M830.458,291.869c-6.56-1.496-10.485-6.036-10.485-14.331c0-14.366,11.798-32.489,26.202-40.806
			c12.883-7.438,24.17-4.915,26.437,5.941c-0.834,0.374-1.674,0.789-2.523,1.279c-12.447,7.186-22.278,23.566-22.278,36.757
			c0,2.195,0.297,4.138,0.809,5.859c-0.809,0.539-1.623,1.058-2.446,1.533c-3.271,1.888-5.901,2.636-9.178,3.783l-9.16,10.58
			L830.458,291.869z"/>
		<path fill="#EFEFEF" d="M849.462,280.266c0-12.072,9.819-27.58,22.286-34.778c11.774-6.798,22.256-3.01,22.256,9.062
			c0,6.81-3.918,15.101-9.177,22.684l1.971,6.408l-7.188-0.387c-2.621,2.27-5.253,4.549-7.862,6.056
			C859.281,296.508,849.462,292.358,849.462,280.266"/>
		<g>
			<path fill="#504F51" d="M837.663,254.486c-1.964,1.134-3.946,3.773-3.946,6.044c0,2.265,1.982,2.634,3.946,1.501
				c1.964-1.134,3.271-3.402,3.271-5.667C840.934,254.093,839.627,253.352,837.663,254.486"/>
			<path fill="#504F51" d="M864.523,260.879c-1.305,0.753-2.621,3.028-2.621,4.533c0,1.528,1.316,2.26,2.621,1.507
				c1.982-1.144,3.279-3.386,3.279-4.913C867.802,260.5,866.504,259.734,864.523,260.879"/>
		</g>
		<path fill="#504F51" d="M878.935,253.429c-1.296,0.748-2.602,3.017-2.602,4.523c0,1.528,1.306,2.266,2.602,1.518
			c1.963-1.134,3.279-3.386,3.279-4.913C882.214,253.051,880.898,252.296,878.935,253.429"/>
		<path fill="#504F51" d="M856.001,251.444c1.973-1.139,3.28-3.408,3.28-5.674c0-2.271-1.307-3.011-3.28-1.872
			c-1.964,1.134-3.934,3.767-3.934,6.037C852.067,252.202,854.037,252.578,856.001,251.444"/>
	</g>
	<g>
		<g>
			<path fill="#0A70A2" d="M935.148,178.575c2.131-1.479,4.161-3.289,6.049-5.357l-2.198-1.806
				C937.49,174.389,937.102,176.059,935.148,178.575z"/>
			<path fill="#0A70A2" d="M905.452,226.998c-4.609,2.414-8.499,0.774-9.839-3.668c0.643-0.199,1.303-0.478,1.982-0.849
				c0.961-0.525,1.891-1.193,2.775-1.973c-2.124,0.633-4.611-0.961-6.314-1.808l-3.101,1.048c1.136,4.729,4.696,8.065,4.696,8.065
				c-3.739,4.673-12.336,9.934-12.336,9.934l6.544,3.169c0.824-0.33,1.662-0.726,2.512-1.191
				C897.305,237.027,901.847,232.462,905.452,226.998z"/>
			<path fill="#0A70A2" d="M893.432,195.602c5.195,5.041,12.956,5.985,21.709,1.743c-0.179-0.856-0.273-1.798-0.273-2.82
				c0-7.193,4.716-15.603,10.533-18.782c3.029-1.656,5.767-1.57,7.688-0.089c2.4-1.895,4.654-4.212,6.689-6.817l-5.708-3.651
				c-2.035,2.605-4.289,4.921-6.688,6.817c-1.921-1.482-4.659-1.567-7.688,0.089c-5.817,3.18-10.533,11.589-10.533,18.783
				c0,1.021,0.093,1.964,0.272,2.819c-8.036,2.423-18.253-5.314-18.253-5.314c-1.636,8.289-2.802,15.981,0.37,20.707
				c-0.947,0.048-1.692-0.046-1.692-0.046c0.385,6.124,2.576,8.779,4.167,9.909c-1.307-1.455-2.105-3.684-2.105-6.596
				c0-0.055,0-0.11,0.001-0.164c1.42,0.199,3.044-0.102,4.771-0.979c-1.006-0.281-1.878-0.855-2.595-1.665"/>
		</g>
		<path fill="#55ACEE" d="M941.197,173.218c-1.889,2.068-3.919,3.878-6.049,5.358c2.175-2.801,3.845-6.266,4.631-9.738
			c-2.035,2.605-4.289,4.921-6.688,6.817c-1.921-1.481-4.659-1.567-7.688,0.089c-5.817,3.18-10.533,11.589-10.533,18.782
			c0,1.021,0.093,1.964,0.273,2.819c-8.754,4.242-16.515,3.298-21.71-1.743c-0.907,2.419-1.426,4.941-1.426,7.328
			c0,4.519,1.859,7.489,4.686,8.281c-1.727,0.876-3.351,1.178-4.771,0.978c-0.001,0.055-0.001,0.109-0.001,0.164
			c0,6.311,3.631,9.591,8.449,8.154c-0.884,0.781-1.814,1.449-2.775,1.974c-0.679,0.371-1.339,0.65-1.982,0.85
			c1.34,4.442,5.23,6.082,9.839,3.668c-3.605,5.464-8.146,10.028-13.081,12.726c-0.85,0.465-1.689,0.861-2.513,1.191
			c4.661,1.148,10.198,0.278,16.146-2.973c19.374-10.59,29.968-36.228,29.968-53.441c0-0.565-0.01-1.121-0.03-1.668
			C937.999,179.872,939.785,176.602,941.197,173.218z"/>
	</g>
	<g>
		<path fill="#11100F" d="M259.51,480.193c12.447,15.785-0.081,38.072-23.789,57.769c-25.823,21.454-55.106,31.706-73.64,15.856
			c-0.825-0.706-1.593-1.445-2.322-2.206c1.15,1.401,2.41,2.744,3.856,3.981c18.533,15.85,47.817,5.598,73.64-15.856
			C261.866,519.29,274.43,496.052,259.51,480.193z"/>
		<path fill="#474747" d="M184.824,494.899c-20.949,17.405-37.652,35.568-29.118,50.336c2.667,4.616,7.91,10.359,7.91,10.359
			l4.332,3.124c0,0-5.571-5.442-8.238-10.058c-8.533-14.768,9.505-31.79,30.453-49.194c20.948-17.404,37.728-31.773,58.796-24.956
			c5.916,1.914,10.793,5.964,10.793,5.964l-2.589-2.542c0,0-6.293-4.933-12.209-6.847
			C223.886,464.267,205.772,477.495,184.824,494.899z"/>
		<path fill="#11100F" d="M231.704,456.16c-18.533-15.85-51.821-9.023-77.644,12.431c-25.823,21.454-34.402,49.412-15.868,65.261
			l25.423,21.742c0,0-5.243-5.743-7.91-10.359c-8.533-14.768,8.17-32.931,29.118-50.336c20.948-17.404,39.063-30.632,60.131-23.814
			c5.916,1.914,12.209,6.847,12.209,6.847L231.704,456.16z"/>
		<g>
			<path fill="#474747" d="M259.672,480.395"/>
			<path fill="#474747" d="M259.703,480.433c-0.493-0.401-5.151-4.114-10.743-5.924c-1.391-0.45-2.761-0.802-4.117-1.072
				c3.578,15.187-11.33,30.249-30.54,46.209c-19.578,16.266-37.985,28.787-56.289,24.877c0.354,1.397,0.911,2.777,1.697,4.137
				c1.639,2.837,4.371,5.98,6.237,7.986c18.576,11.591,45.68,1.335,69.774-18.683C259.308,518.366,271.834,496.204,259.703,480.433z
				"/>
		</g>
		<path fill="#474747" d="M211.441,474.713c0,0-2.68,1.113-8.951,5.195c-6.271,4.082-10.742,7.969-10.742,7.969l-36.611-18.943
			c0,0,2.648-2.727,9.136-6.95c6.488-4.223,10.853-6.062,10.853-6.062L211.441,474.713z"/>
		<g>
			<polygon fill="#27AAE1" points="187.03,469.086 185.664,470.111 187.603,471.259 182.14,475.358 174.385,470.768 
				179.848,466.669 181.787,467.816 183.153,466.791 181.214,465.644 182.58,464.619 180.641,463.472 175.178,467.571 
				173.239,466.423 171.873,467.448 173.812,468.595 171.081,470.645 173.019,471.792 170.288,473.842 172.226,474.989 
				174.958,472.94 178.835,475.235 176.104,477.284 178.043,478.432 180.774,476.382 182.713,477.53 185.445,475.48 
				187.383,476.628 188.749,475.603 186.81,474.456 192.273,470.357 190.335,469.209 188.969,470.234 187.03,469.086 			"/>
			<polygon fill="#27AAE1" points="182.58,464.619 190.335,469.209 191.701,468.184 183.946,463.595 182.58,464.619 			"/>
			<polygon fill="#27AAE1" points="181.391,469.415 180.025,470.439 181.963,471.587 183.329,470.562 184.299,471.136 
				185.664,470.111 181.787,467.816 180.421,468.841 181.391,469.415 			"/>
		</g>
	</g>
	<g>
		<g>
			<path fill="#9E1526" d="M829.103,423.808v-14.786c0-1.689,1.368-3.849,3.056-4.824l11.715-6.764v-14.368
				c0-2.07,1.117-4.393,2.494-5.188l12.056-6.961c0.639-0.369,1.221-0.34,1.662-0.001l0,0c0,0-3.116-3.087-4.494-2.291
				l-12.056,6.961c-1.378,0.795-2.494,3.118-2.494,5.188v14.368l-11.715,6.764c-1.688,0.974-3.056,3.134-3.056,4.824v14.786
				c0,1.69,3.326,3.672,3.326,3.672C829.285,424.888,829.103,424.422,829.103,423.808z"/>
			<path fill="#9E1526" d="M860.918,387.594l11.715-6.764c0.833-0.481,1.587-0.582,2.139-0.359c0,0-3.283-2.907-4.971-1.933
				l-8.883,5.129V387.594z"/>
			<path fill="#9E1526" d="M843.874,432.707v-14.368l-2.832,1.635v10.441c0,2.07,3.706,4.633,3.706,4.633l0,0
				C844.213,434.669,843.874,433.846,843.874,432.707z"/>
		</g>
		<path fill="#CC1B1B" d="M872.634,380.83l-11.715,6.764v-14.368c0-2.07-1.117-3.103-2.494-2.308l-12.056,6.961
			c-1.378,0.795-2.494,3.118-2.494,5.188v14.368l-11.715,6.764c-1.688,0.974-3.056,3.134-3.056,4.824v14.786
			c0,1.69,1.368,2.269,3.056,1.295l11.715-6.764v14.368c0,2.07,1.117,3.103,2.494,2.308l12.056-6.961
			c1.378-0.795,2.494-3.118,2.494-5.188v-14.368l11.715-6.764c1.688-0.974,3.056-3.134,3.056-4.824v-14.786
			C875.69,380.435,874.321,379.856,872.634,380.83z"/>
	</g>
	<g>
		<path fill="#0A6B91" d="M944.448,354.787c0-15.253,9.998-33.391,22.331-40.511c5.471-3.159,10.48-3.613,14.363-1.816
			c-0.004-0.005-0.008-0.01-0.011-0.015c0,0-10.649-5.271-18.089-0.976c-12.333,7.121-22.331,22.378-22.331,40.511
			c0,10.727,7.978,16.553,7.978,16.553c0.004,0.002,0.009,0.003,0.013,0.005C946.029,365.528,944.448,360.843,944.448,354.787z"/>
		<path fill="#0A70A2" d="M989.111,329.001c0,15.253-9.998,33.39-22.331,40.511c-12.333,7.121-22.331,0.528-22.331-14.725
			c0-15.253,9.998-33.39,22.331-40.511C979.113,307.155,989.111,313.748,989.111,329.001z"/>
		<g>
			<path fill="#FFFFFF" d="M972.817,356.001l-11.615,6.706v-1.659c0.319-0.215,0.631-0.433,0.937-0.655s0.57-0.451,0.79-0.684
				c0.392-0.408,0.668-0.829,0.827-1.262c0.159-0.433,0.239-0.93,0.239-1.49v-13.229c0-0.531-0.098-0.94-0.294-1.228
				c-0.196-0.288-0.441-0.469-0.735-0.542c-0.221-0.055-0.554-0.036-1.002,0.056c-0.448,0.091-0.855,0.221-1.222,0.387v-1.659
				l9.006-5.79l0.276,0.182v18.047c0,0.531,0.092,0.928,0.276,1.193c0.184,0.266,0.448,0.389,0.79,0.373
				c0.245-0.005,0.515-0.039,0.809-0.103c0.294-0.064,0.6-0.165,0.919-0.303V356.001z M970.134,326.547
				c0,1.151-0.358,2.34-1.075,3.564c-0.717,1.224-1.565,2.12-2.545,2.686c-0.992,0.573-1.847,0.661-2.564,0.264
				c-0.717-0.396-1.075-1.171-1.075-2.323c0-1.151,0.358-2.344,1.075-3.576c0.717-1.232,1.571-2.135,2.564-2.708
				c0.992-0.573,1.844-0.656,2.555-0.247S970.134,325.395,970.134,326.547z"/>
		</g>
	</g>
	<g>
		<path fill="#A3B535" d="M892.271,407.392c0,0-6.557-3.325-6.557-7.726v-40.799c0-4.401,2.784-9.576,6.217-11.559l31.829-18.377
			c3.434-1.982,9.26,3.044,9.26,3.044"/>
		<path fill="#ADC742" d="M934.816,377.337c0,4.401-2.784,9.576-6.217,11.559l-31.829,18.377c-3.434,1.982-6.217,0.022-6.217-4.38
			v-40.799c0-4.401,2.784-9.576,6.217-11.559l31.829-18.377c3.434-1.982,6.217-0.022,6.217,4.38V377.337z"/>
		<g>
			<path fill="#FFFFFF" d="M927.639,346.15l-2.3,1.328v-3.501c0-0.917-0.58-1.324-1.294-0.912l-22.721,13.118
				c-0.715,0.413-1.294,1.489-1.294,2.406v3.503l-2.301,1.329c-0.715,0.413-1.294,1.489-1.294,2.406v5.519
				c0,0.917,0.579,1.325,1.294,0.912s1.294-1.489,1.294-2.406v-3.86l1.007-0.581v14.73v11.076c0,0.916,0.579,1.325,1.294,0.912
				l0.269-0.155v2.579c0,0.916,0.579,1.325,1.294,0.912l2.677-1.546c0.715-0.413,1.294-1.49,1.294-2.406v-2.579l11.65-6.726v2.579
				c0,0.916,0.58,1.324,1.294,0.912l2.678-1.546c0.714-0.412,1.294-1.49,1.294-2.406v-2.579l0.269-0.155
				c0.714-0.412,1.294-1.49,1.294-2.406v-11.076v-14.731l1.006-0.581v3.86c0,0.917,0.58,1.324,1.294,0.912
				c0.715-0.413,1.294-1.489,1.294-2.406v-5.519C928.933,346.145,928.354,345.738,927.639,346.15z M905.346,386.675
				c-1.24,0.716-2.245,0.009-2.245-1.583c0-1.59,1.005-3.458,2.245-4.174c1.241-0.716,2.246-0.009,2.246,1.581
				C907.592,384.091,906.587,385.958,905.346,386.675z M920.014,378.206c-1.241,0.716-2.246,0.009-2.246-1.582
				c0-1.59,1.004-3.458,2.246-4.174c1.242-0.717,2.247-0.01,2.247,1.581C922.262,375.621,921.256,377.489,920.014,378.206z
				 M922.75,350.632v14.73l-20.132,11.623v-14.73v-3.501l20.132-11.623V350.632z"/>
		</g>
	</g>
	<g>
		<path id="Blue_6_" fill="#2C4C7C" d="M982.21,176.884c0,0-6.388-5.222-7.341-4.672l-27.817,16.06
			c-0.953,0.55-1.726,2.034-1.726,3.314v37.364c0,1.28,6.583,6,6.583,6"/>
		<g>
			<path id="Blue_5_" fill="#3C5A99" d="M980.954,218.873c0.953-0.55,1.726-2.034,1.726-3.315v-37.364
				c0-1.28-0.773-1.872-1.726-1.322l-27.817,16.06c-0.953,0.55-1.726,2.034-1.726,3.314v37.364c0,1.28,0.772,1.872,1.726,1.322
				L980.954,218.873z"/>
			<path id="f_2_" fill="#FFFFFF" d="M972.986,223.473v-16.265l4.064-2.347l0.609-6.69l-4.673,2.698v-4.047
				c0-1.835,0.379-3.305,2.339-4.436l2.499-1.444v-5.669c-0.432,0.172-1.916,0.856-3.641,1.852
				c-3.603,2.08-6.069,6.458-6.069,11.883v4.675l-4.075,2.353v6.339l4.075-2.353v16.265L972.986,223.473z"/>
		</g>
	</g>
	<g opacity="0.7">
		<path fill="none" stroke="#FFFFFF" stroke-width="7.2329" stroke-miterlimit="10" d="M202.371,406.183
			c3.412-6.259,1.559-13.573-5.81-19.014l0,0c-7.369-5.441-18.35-7.604-28.416-6.257"/>
		<path fill="none" stroke="#FFFFFF" stroke-width="4.3397" stroke-miterlimit="10" d="M190.494,405.775
			c2.324-4.263,1.062-9.243-3.957-12.949l0,0c-5.019-3.706-12.497-5.178-19.351-4.261"/>
		<path fill="none" stroke="#FFFFFF" stroke-width="4.3397" stroke-miterlimit="10" d="M180.149,405.527
			c1.392-2.554,0.636-5.538-2.37-7.758l0,0c-3.007-2.22-7.487-3.102-11.593-2.553"/>
	</g>
	<g opacity="0.7">
		<path fill="none" stroke="#FFFFFF" stroke-width="7.2329" stroke-miterlimit="10" d="M306.178,472.351
			c3.412-6.259,1.559-13.573-5.81-19.014l0,0c-7.369-5.441-18.35-7.604-28.416-6.257"/>
		<path fill="none" stroke="#FFFFFF" stroke-width="4.3397" stroke-miterlimit="10" d="M294.301,471.942
			c2.324-4.263,1.062-9.243-3.957-12.949l0,0c-5.019-3.706-12.497-5.178-19.351-4.261"/>
		<path fill="none" stroke="#FFFFFF" stroke-width="4.3397" stroke-miterlimit="10" d="M283.956,471.695
			c1.392-2.554,0.636-5.538-2.37-7.758l0,0c-3.007-2.22-7.487-3.102-11.593-2.553"/>
	</g>
</g>
</svg>
