<svg xmlns="http://www.w3.org/2000/svg" xmlns:xlink="http://www.w3.org/1999/xlink" width="125" height="150" viewBox="0 0 125 150"><circle fill="#F1F2F2" stroke="#D1D3D4" stroke-width=".626" stroke-miterlimit="10" cx="62.5" cy="57.022" r="56.169"/><circle fill="#FFF" cx="62.5" cy="57.022" r="47.542"/><defs><circle id="a" cx="62.5" cy="57.022" r="47.542"/></defs><clipPath id="b"><use xlink:href="#a" overflow="visible"/></clipPath><g clip-path="url(#b)"><path fill="#F7991F" d="M12.487 13.947v58.814l26.715-27.336L62.81 69.033l49.909-49.909v-4.556c0-4.349-3.521-7.662-7.662-7.662-18.845 0-67.305.207-85.529 0-3.934 0-7.041 3.106-7.041 7.041z"/><path fill="#F7991F" d="M51.006 57.022L38.995 69.24l12.011 12.219z"/><path fill="#F15823" d="M12.28 95.748v4.142c0 3.935 3.313 7.248 7.248 7.248h86.15c3.935 0 7.041-3.106 7.041-7.041V42.733L62.811 92.642 39.202 69.033S12.487 95.955 12.28 95.748z"/></g><g><path fill="#75787D" d="M59.799 142.249c-.214.107-.481.267-.695.374-.695.321-1.39.374-2.032.374-.695 0-1.711-.053-2.781-.802-1.497-1.07-2.139-2.888-2.139-4.439 0-3.262 2.674-4.866 4.813-4.866a4.49 4.49 0 0 1 2.193.588c1.07.695 1.337 1.604 1.497 2.086l-4.973 1.979-1.604.107c.535 2.674 2.353 4.225 4.332 4.225 1.07 0 1.872-.374 2.567-.749l-1.178 1.123zm-1.978-6.311c.374-.16.588-.267.588-.588 0-.856-.963-1.818-2.086-1.818-.856 0-2.406.642-2.406 2.941 0 .374.053.749.053 1.123l3.851-1.658zm-6.204 6.792l.802-.481c-.374-.053-.695-.053-1.07-.107-.695-.053-.856-.214-.856-1.016v-4.866c0-2.995 0-5.562.214-7.166.107-.749.321-.856.963-1.23h-2.995l-1.604.749h1.658c0 .963-.107 2.3-.107 3.369-.053 2.193-.107 4.546-.107 6.15v3.423c0 .428-.107.481-.588 1.123h3.69v.052zm-6.898-8.824c.481.374 1.497 1.23 1.497 2.834 0 1.551-.909 2.3-1.765 2.995-.267.267-.588.588-.588 1.016 0 .481.321.695.535.909l.749.588c.909.802 1.765 1.497 1.765 2.941 0 1.979-1.925 3.957-5.562 3.957-3.048 0-4.546-1.444-4.546-2.995 0-.749.374-1.818 1.604-2.567 1.283-.802 3.102-.909 4.011-.963-.321-.374-.642-.802-.642-1.444 0-.374.107-.588.214-.802-.214 0-.481.053-.695.053-2.246 0-3.476-1.658-3.476-3.316 0-.963.428-2.032 1.337-2.834 1.177-1.016 2.62-1.177 3.797-1.177h4.332l-1.337.749h-1.23v.056zm-1.498 9.359h-.481c-.214 0-1.337.053-2.193.321-.481.16-1.818.695-1.818 2.193 0 1.497 1.444 2.567 3.69 2.567 2.032 0 3.102-.963 3.102-2.3 0-1.07-.695-1.658-2.3-2.781zm.589-4.011c.481-.481.535-1.177.535-1.551 0-1.497-.909-3.904-2.674-3.904-.535 0-1.123.267-1.497.695-.374.428-.481 1.016-.481 1.551 0 1.39.802 3.743 2.62 3.743.587.054 1.176-.16 1.497-.534zm-12.193 3.743c-3.369 0-5.134-2.62-5.134-4.973 0-2.781 2.246-5.134 5.455-5.134 3.102 0 5.027 2.406 5.027 4.973-.001 2.46-1.872 5.134-5.348 5.134zm2.674-1.711c.481-.695.642-1.497.642-2.353 0-1.872-.909-5.401-3.476-5.401-.695 0-1.39.267-1.872.695-.802.749-.963 1.658-.963 2.567 0 2.086 1.016 5.508 3.583 5.508.749.054 1.604-.374 2.086-1.016zm-13.851 1.711c-3.369 0-5.134-2.62-5.134-4.973 0-2.781 2.246-5.134 5.455-5.134 3.102 0 5.027 2.406 5.027 4.973 0 2.46-1.926 5.134-5.348 5.134zm2.62-1.711c.481-.695.642-1.497.642-2.353 0-1.872-.909-5.401-3.476-5.401-.695 0-1.39.267-1.872.695-.802.749-.963 1.658-.963 2.567 0 2.086 1.016 5.508 3.583 5.508.749.054 1.605-.374 2.086-1.016zm-9.144.963v-2.406c0-.214 0-.749.053-.963.053-.16.053-.214.214-.321l.535-.481h-4.171l-1.604.856 2.995-.16v3.155c-.588.214-1.23.481-2.513.481-4.332 0-7.006-3.476-7.006-7.219 0-3.476 2.353-5.829 5.455-5.829 2.353 0 3.53 1.23 4.225 1.872l-.481.802.695-.16 1.658-1.551c-.428-.321-1.123-.802-2.62-1.23a11.06 11.06 0 0 0-3.048-.428c-5.027 0-7.968 3.53-7.968 7.38 0 3.155 2.086 7.166 7.54 7.166 1.07 0 2.139-.16 3.262-.321l2.779-.643z"/><g fill="#75787D"><path d="M72.848 138.452h-4.599l-1.604 4.011h-.856l4.599-11.391h.481l4.492 11.391h-.909l-1.604-4.011zm-4.332-.696h4.064l-1.551-4.118c-.107-.321-.267-.749-.481-1.337-.16.481-.267.963-.481 1.337l-1.551 4.118zM82.634 142.462v-5.455c0-.856-.16-1.444-.535-1.872-.374-.428-.909-.588-1.658-.588-1.016 0-1.765.267-2.246.749-.481.535-.695 1.337-.695 2.46v4.653h-.749v-8.396h.642l.16 1.177h.053c.535-.856 1.551-1.337 2.941-1.337 1.925 0 2.888 1.016 2.888 3.102v5.508h-.801zM90.602 142.462l-.214-1.337h-.053c-.428.535-.856.909-1.337 1.176-.428.214-.963.321-1.604.321-.856 0-1.497-.214-1.925-.642-.481-.428-.695-1.016-.695-1.765 0-.802.321-1.444 1.016-1.925.695-.481 1.658-.695 2.995-.749l1.604-.053v-.535c0-.802-.16-1.39-.481-1.818-.321-.428-.856-.588-1.604-.588-.802 0-1.604.214-2.46.642l-.267-.695c.909-.428 1.872-.642 2.727-.642.909 0 1.604.267 2.086.749.481.481.695 1.23.695 2.246v5.615h-.483zm-3.101-.534c.909 0 1.604-.267 2.139-.749.535-.481.802-1.23.802-2.139v-.856l-1.497.053c-1.177.053-2.032.267-2.513.535-.481.321-.749.802-.749 1.444 0 .535.16.963.481 1.23.321.321.749.482 1.337.482zM94.399 142.462h-.749v-12.086h.749v12.086zM95.469 134.013h.802l1.765 4.76c.535 1.444.909 2.46 1.016 2.941h.053c.214-.642.588-1.658 1.07-2.995l1.765-4.706h.802l-3.797 9.84c-.321.802-.588 1.337-.749 1.604-.16.267-.428.481-.749.642-.267.16-.588.214-1.016.214-.321 0-.642-.053-.963-.16v-.695c.321.107.642.107.963.107.267 0 .481-.053.695-.16.214-.107.374-.321.535-.588.16-.267.374-.695.588-1.23.214-.535.374-.963.428-1.123l-3.208-8.451zM107.074 141.928c.481 0 .909-.053 1.283-.107v.642c-.374.107-.802.16-1.283.16-.749 0-1.283-.214-1.658-.588-.374-.374-.535-1.016-.535-1.872v-5.455h-1.283v-.428l1.23-.374.374-1.925h.374v2.032h2.46v.695h-2.46v5.348c0 .642.107 1.123.321 1.444.321.267.695.428 1.177.428zM109.427 131.66c0-.481.16-.749.481-.749.16 0 .267.053.374.214.107.107.16.321.16.535s-.053.428-.16.535c-.107.16-.214.214-.374.214-.321 0-.481-.214-.481-.749zm.909 10.802h-.749v-8.449h.749v8.449zM115.577 142.623c-1.23 0-2.139-.374-2.834-1.123s-1.016-1.818-1.016-3.209c0-1.39.374-2.513 1.07-3.262s1.658-1.177 2.941-1.177c.749 0 1.444.107 2.086.374l-.214.695c-.749-.267-1.39-.374-1.925-.374-1.016 0-1.818.321-2.353.963-.535.642-.802 1.551-.802 2.781 0 1.123.267 2.032.802 2.674.535.642 1.283.963 2.246.963a5.64 5.64 0 0 0 2.139-.428v.695c-.59.321-1.285.428-2.14.428zM124.668 140.27c0 .749-.267 1.337-.856 1.765-.588.428-1.39.588-2.46.588-1.123 0-2.032-.16-2.674-.535v-.856a5.962 5.962 0 0 0 2.674.642c.856 0 1.444-.16 1.925-.428.481-.267.642-.642.642-1.123 0-.428-.16-.802-.535-1.07-.321-.267-.909-.588-1.711-.856-.856-.321-1.444-.588-1.765-.802a2.493 2.493 0 0 1-.749-.749 2.052 2.052 0 0 1-.267-1.016c0-.642.267-1.123.802-1.497s1.283-.535 2.246-.535c.909 0 1.765.16 2.62.535l-.267.695c-.856-.321-1.604-.535-2.3-.535-.695 0-1.23.107-1.658.321-.428.214-.588.535-.588.963 0 .428.16.802.481 1.07s.909.535 1.818.909c.749.267 1.337.535 1.658.749s.588.481.802.749c.108.321.162.642.162 1.016z"/></g></g></svg>