<svg xmlns="http://www.w3.org/2000/svg" width="45" height="45" viewBox="0 0 45 45"><path fill="#F6981C" d="M45 41.027A3.985 3.985 0 0 1 41.027 45H3.973A3.985 3.985 0 0 1 0 41.027V3.973A3.985 3.985 0 0 1 3.973 0h37.055A3.985 3.985 0 0 1 45 3.973v37.054z"/><path fill="#FFF" d="M45 14.138L40.936 11.4a4.74 4.74 0 0 0 .131-1.093 4.781 4.781 0 1 0-9.562 0c0 1.039.335 1.998.898 2.782l-8.787 13.436a4.756 4.756 0 0 0-4.2.997l-5.881-3.385a4.79 4.79 0 0 0 .051-.66 4.781 4.781 0 1 0-9.191 1.849L0 29.401v4.335l6.525-6.054a4.765 4.765 0 0 0 2.277.576 4.76 4.76 0 0 0 3.267-1.297l5.738 3.302a4.782 4.782 0 1 0 9.474.906c0-1.1-.376-2.11-1-2.918l8.726-13.342c.407.113.834.178 1.277.178 1.107 0 2.124-.38 2.935-1.012L45 17.97v-3.832z"/><path fill="#F05620" d="M39.219 14.076a4.756 4.756 0 0 1-2.935 1.012c-.443 0-.87-.065-1.277-.178l-8.726 13.342c.624.808 1 1.818 1 2.918a4.782 4.782 0 0 1-9.562 0c0-.31.032-.613.088-.906l-5.738-3.302a4.76 4.76 0 0 1-3.267 1.297c-.824 0-1.6-.209-2.277-.576L0 33.736v7.291A3.985 3.985 0 0 0 3.973 45h37.055A3.985 3.985 0 0 0 45 41.027V17.97l-5.781-3.894z"/></svg>