<svg xmlns="http://www.w3.org/2000/svg" width="148.152" height="59.024" viewBox="0 0 148.152 59.024"><g fill="#FFF"><path d="M71.261 48.928c.083-.054.209-.11.378-.168a1.76 1.76 0 0 1 .583-.088c.273 0 .517.049.729.147.212.098.392.234.539.411.146.176.258.386.333.63.076.245.114.514.114.807 0 .308-.045.585-.136.833s-.219.456-.385.627c-.166.171-.366.303-.601.396s-.499.139-.792.139c-.318 0-.599-.022-.843-.066a6.648 6.648 0 0 1-.602-.132v-5.463l.682-.117v2.044zm0 3.05a2.1 2.1 0 0 0 .29.055c.125.017.28.026.466.026.367 0 .66-.121.88-.363.22-.242.33-.585.33-1.03 0-.195-.02-.379-.059-.55s-.103-.319-.191-.444c-.088-.125-.202-.222-.341-.293s-.307-.106-.502-.106c-.186 0-.357.032-.513.095a1.357 1.357 0 0 0-.359.198v2.412zM74.392 53.283c.054.024.124.047.209.069s.17.033.253.033c.269 0 .479-.06.631-.18s.289-.314.411-.583a20.897 20.897 0 0 1-.862-1.866 16.468 16.468 0 0 1-.664-1.998h.733c.054.22.119.457.194.711a19.578 19.578 0 0 0 .554 1.592c.107.269.22.528.337.777.186-.513.347-1.021.484-1.525.137-.503.267-1.021.389-1.554h.704a29.26 29.26 0 0 1-.587 2.071 21.183 21.183 0 0 1-.696 1.859c-.098.22-.2.41-.305.568s-.221.29-.348.393c-.127.103-.27.178-.429.227a1.826 1.826 0 0 1-.708.062 1.622 1.622 0 0 1-.425-.107l.125-.549z"/></g><path fill="#FFF" d="M80.343 48.724h1.85v1.27h.028c.4-.745.842-1.463 2.016-1.463.124 0 .248.014.373.028v1.961c-.166-.028-.373-.028-.552-.028-1.505 0-1.781.939-1.781 1.753v3.824h-1.933v-7.345zM91.762 53.915c-.511 1.767-1.974 2.347-3.231 2.347-2.071 0-3.659-.994-3.659-4.017 0-.884.304-3.714 3.521-3.714 1.45 0 3.451.69 3.451 4.045v.345h-5.039c.055.552.166 1.795 1.726 1.795.539 0 1.091-.276 1.243-.801h1.988zm-1.906-2.25c-.11-1.187-.87-1.546-1.491-1.546-.911 0-1.395.58-1.505 1.546h2.996zM99.439 53.915c-.511 1.767-1.974 2.347-3.231 2.347-2.071 0-3.659-.994-3.659-4.017 0-.884.304-3.714 3.521-3.714 1.45 0 3.451.69 3.451 4.045v.345h-5.039c.055.552.166 1.795 1.726 1.795.539 0 1.091-.276 1.243-.801h1.988zm-1.906-2.25c-.11-1.187-.87-1.546-1.491-1.546-.911 0-1.395.58-1.505 1.546h2.996zM102.794 56.069h-1.933v-9.913h1.933v9.913zM108.455 55.945c-.911 2.72-1.16 3.079-2.844 3.079-.262 0-.594-.014-.87-.028V57.45c.083.014.207.028.373.028.704 0 1.091-.097 1.27-1.104l-2.706-7.649h2.154l1.574 5.412h.028l1.505-5.412h2.043l-2.527 7.22zM113.826 53.184l-1.035 2.886h-1.381l3.728-9.913h1.519l3.59 9.913h-1.463l-.981-2.886h-3.977zm3.493-1.188l-1.463-4.363h-.027l-1.588 4.363h3.078zM125.562 51.278c-.152-.967-.69-1.546-1.712-1.546-1.505 0-1.988 1.436-1.988 2.72 0 1.242.304 2.775 1.974 2.775.815 0 1.519-.608 1.726-1.713h1.174c-.124 1.146-.828 2.762-2.941 2.762-2.029 0-3.231-1.533-3.231-3.618 0-2.237 1.077-4.018 3.465-4.018 1.892 0 2.61 1.381 2.706 2.637l-1.173.001zM129.442 49.856v4.694c0 .566.483.566.732.566h.428v.953c-.442.041-.787.097-.911.097-1.201 0-1.464-.677-1.464-1.546v-4.763h-.98v-1.008h.98v-2.016h1.215v2.016h1.16v1.008h-1.16z"/><path fill="#F26A21" d="M131.817 46.156h1.215v1.381h-1.215z"/><path fill="#FFF" d="M131.817 48.849h1.215v7.221h-1.215zM139.425 48.849h1.326l-2.748 7.221h-1.298l-2.637-7.221h1.408l1.878 5.882h.028l2.043-5.882zM147.543 53.805c-.042.346-.373 1.367-1.284 1.974-.331.221-.801.497-1.96.497-2.03 0-3.231-1.533-3.231-3.618 0-2.237 1.077-4.018 3.465-4.018 2.085 0 3.106 1.657 3.106 4.211h-5.274c0 1.505.704 2.375 2.098 2.375 1.146 0 1.822-.884 1.864-1.422l1.216.001zm-1.16-1.919c-.069-1.118-.538-2.154-2.015-2.154-1.118 0-2.002 1.036-2.002 2.154h4.017z"/><path fill="#0E71A3" d="M80.344 57.45h22.45v1.546h-22.45z"/><path fill="#F26A21" d="M109.865 57.45h37.679v1.546h-37.679z"/><g fill="#FFF"><path d="M11.524 0c5.725 0 10.12 1.007 13.186 3.019 3.065 2.014 4.599 5.31 4.599 9.889 0 4.618-1.551 7.951-4.654 10-3.102 2.05-7.534 3.075-13.297 3.075H8.643v12.854H0V.997A49.014 49.014 0 0 1 5.984.221C8.089.074 9.936 0 11.524 0zm.554 7.369c-.628 0-1.246.019-1.856.055-.609.037-1.136.074-1.579.111v11.081h2.714c2.992 0 5.244-.406 6.759-1.219 1.515-.812 2.272-2.327 2.272-4.543 0-1.071-.194-1.957-.582-2.659a4.433 4.433 0 0 0-1.662-1.69c-.72-.424-1.598-.72-2.632-.886-1.033-.168-2.179-.25-3.434-.25zM71.04 24.486c0-2.585.397-4.848 1.191-6.787s1.837-3.555 3.131-4.848a13.014 13.014 0 0 1 4.459-2.936 13.962 13.962 0 0 1 5.181-.997c4.136 0 7.405 1.266 9.807 3.795 2.4 2.53 3.601 6.252 3.601 11.164 0 .48-.019 1.006-.056 1.579a82.084 82.084 0 0 1-.111 1.524H79.517c.184 1.699.978 3.047 2.383 4.045 1.403.997 3.287 1.495 5.651 1.495 1.514 0 3-.138 4.459-.415 1.459-.277 2.65-.618 3.574-1.025l1.108 6.704c-.443.221-1.035.443-1.773.664-.74.221-1.561.415-2.465.582-.906.167-1.875.305-2.909.415a29.057 29.057 0 0 1-3.102.167c-2.623 0-4.903-.388-6.842-1.164-1.939-.775-3.546-1.837-4.82-3.186-1.275-1.347-2.216-2.945-2.826-4.793-.611-1.846-.915-3.841-.915-5.983zm19.391-3.158c-.037-.701-.158-1.385-.361-2.05s-.517-1.255-.942-1.773a5.017 5.017 0 0 0-1.607-1.274c-.647-.332-1.449-.499-2.41-.499-.924 0-1.718.158-2.382.471a4.946 4.946 0 0 0-1.663 1.246 5.594 5.594 0 0 0-1.025 1.801c-.24.684-.415 1.377-.526 2.078h10.916zM70.121 15.928c.794-1.939 1.837-3.555 3.131-4.848.32-.32.653-.621.997-.903a8.89 8.89 0 0 0-1.559-.454 32.82 32.82 0 0 0-3.766-.554 18.901 18.901 0 0 0-1.607-.083c-2.475 0-4.719.231-6.732.693-2.014.462-3.759.951-5.235 1.468v27.591h8.255V16.566c.369-.111.914-.212 1.634-.305.72-.092 1.338-.139 1.856-.139 1.019 0 1.97.094 2.872.255.054-.147.095-.305.154-.449zM148.152 24.211c0 2.291-.332 4.387-.997 6.288-.665 1.903-1.626 3.528-2.882 4.876-1.256 1.349-2.761 2.392-4.515 3.131-1.755.738-3.721 1.108-5.9 1.108-2.143 0-4.092-.37-5.845-1.108-1.755-.739-3.261-1.782-4.516-3.131-1.256-1.347-2.235-2.973-2.936-4.876-.702-1.901-1.053-3.997-1.053-6.288 0-2.29.361-4.377 1.081-6.26.72-1.884 1.718-3.491 2.992-4.82a13.44 13.44 0 0 1 4.544-3.102c1.753-.738 3.665-1.108 5.734-1.108 2.105 0 4.034.37 5.789 1.108 1.754.739 3.259 1.773 4.515 3.102 1.255 1.33 2.235 2.937 2.937 4.82.701 1.883 1.052 3.971 1.052 6.26zm-8.421 0c0-2.549-.508-4.552-1.524-6.011-1.016-1.459-2.465-2.189-4.349-2.189-1.884 0-3.343.73-4.377 2.189-1.035 1.459-1.551 3.462-1.551 6.011s.517 4.571 1.551 6.066c1.034 1.496 2.493 2.244 4.377 2.244 1.883 0 3.333-.748 4.349-2.244 1.015-1.495 1.524-3.517 1.524-6.066z"/><path d="M121.275 36.609c-1.218-1.307-2.17-2.88-2.866-4.709-.609.156-1.228.296-1.677.375-.942.166-1.856.249-2.743.249-1.848 0-3.075-.517-3.684-1.551-.609-1.034-.914-2.418-.914-4.156V16.568h9.917v-6.87h-9.917V1.11l-8.255 1.33v24.489c0 1.883.175 3.601.526 5.152.351 1.551.97 2.872 1.856 3.962.887 1.09 2.068 1.939 3.546 2.549 1.477.609 3.342.913 5.596.913 1.773 0 3.269-.148 4.488-.443 1.091-.264 3.65-1.121 5.008-1.603-.305-.27-.601-.55-.881-.85zM52.467 15.901c-.407-1.477-1.099-2.733-2.077-3.768-.979-1.034-2.281-1.828-3.906-2.383-1.626-.554-3.657-.831-6.095-.831-.96 0-1.911.047-2.853.139-.942.093-1.837.203-2.687.332-.85.13-1.634.277-2.355.443-.133.031-.241.06-.366.09.167.928.258 1.918.258 2.985 0 1.465-.174 2.787-.487 3.993.966-.343 2.092-.614 3.392-.808a28.38 28.38 0 0 1 4.156-.305c2.106 0 3.582.425 4.432 1.274.85.85 1.275 1.976 1.275 3.38v.776c-.518-.148-1.191-.268-2.022-.36a26.178 26.178 0 0 0-2.853-.139c-1.588 0-3.122.158-4.599.471-1.478.314-2.789.822-3.933 1.523a7.89 7.89 0 0 0-2.743 2.826c-.684 1.183-1.025 2.623-1.025 4.321 0 1.773.295 3.269.887 4.488a7.456 7.456 0 0 0 2.549 2.964c1.107.757 2.428 1.302 3.961 1.634 1.533.332 3.241.499 5.125.499 2.992 0 5.541-.175 7.646-.526 2.106-.351 3.748-.656 4.931-.914V20.832c-.001-1.81-.204-3.454-.611-4.931zm-7.313 16.954c-.443.074-1.035.129-1.773.166-.74.037-1.516.056-2.327.056-1.515 0-2.706-.25-3.574-.749-.868-.499-1.302-1.394-1.302-2.687 0-.664.147-1.219.443-1.662a3.09 3.09 0 0 1 1.219-1.052c.517-.259 1.117-.434 1.801-.527a16.587 16.587 0 0 1 2.188-.138 16.6 16.6 0 0 1 1.828.111c.665.074 1.164.148 1.496.221v6.261z"/></g></svg>