<svg xmlns="http://www.w3.org/2000/svg" width="110.443" height="29.531" viewBox="0 0 110.443 29.531"><g fill="#A7A9AC"><path d="M8.591 0c4.267 0 7.544.751 9.83 2.251 2.285 1.501 3.428 3.958 3.428 7.372 0 3.442-1.156 5.927-3.47 7.455-2.313 1.528-5.617 2.292-9.912 2.292H6.443v9.582H0V.743A36.506 36.506 0 0 1 4.461.165 59.952 59.952 0 0 1 8.591 0zm.413 5.493c-.468 0-.929.014-1.384.041-.454.028-.846.056-1.177.083v8.26h2.023c2.231 0 3.91-.303 5.039-.909 1.129-.605 1.694-1.735 1.694-3.387 0-.798-.145-1.459-.434-1.982a3.3 3.3 0 0 0-1.239-1.26c-.537-.316-1.191-.537-1.962-.661a16.31 16.31 0 0 0-2.56-.185zM52.958 18.254c0-1.927.296-3.614.888-5.06.592-1.446 1.37-2.65 2.334-3.614a9.707 9.707 0 0 1 3.324-2.189 10.404 10.404 0 0 1 3.862-.744c3.083 0 5.52.944 7.311 2.829 1.789 1.886 2.684 4.661 2.684 8.323 0 .358-.014.75-.042 1.177-.028.427-.055.806-.083 1.136h-13.96c.137 1.267.729 2.272 1.776 3.015 1.046.743 2.45 1.115 4.213 1.115 1.129 0 2.237-.103 3.324-.31 1.088-.207 1.976-.46 2.664-.764l.826 4.998c-.33.165-.771.33-1.321.495a17.42 17.42 0 0 1-1.838.434c-.675.124-1.398.227-2.169.31-.771.083-1.542.124-2.313.124-1.955 0-3.655-.289-5.101-.868-1.446-.578-2.644-1.369-3.593-2.375-.95-1.005-1.652-2.195-2.107-3.573-.452-1.375-.679-2.862-.679-4.459zm14.456-2.355a6.392 6.392 0 0 0-.269-1.528 3.822 3.822 0 0 0-.702-1.322 3.75 3.75 0 0 0-1.198-.95c-.482-.248-1.08-.372-1.796-.372-.689 0-1.28.118-1.776.351a3.68 3.68 0 0 0-1.24.929c-.33.386-.585.833-.764 1.342a8.771 8.771 0 0 0-.392 1.549h8.137zM52.273 11.874c.592-1.446 1.37-2.65 2.334-3.614.239-.239.487-.463.743-.673a6.625 6.625 0 0 0-1.162-.338 24.588 24.588 0 0 0-2.808-.414 14.104 14.104 0 0 0-1.198-.062c-1.845 0-3.518.172-5.018.516-1.501.345-2.802.709-3.903 1.095v20.568h6.154V12.349c.275-.083.682-.158 1.218-.227.537-.068.997-.103 1.384-.103.759 0 1.468.07 2.141.19.041-.11.071-.228.115-.335zM110.443 18.049c0 1.708-.248 3.27-.743 4.687-.496 1.418-1.212 2.63-2.148 3.635a9.655 9.655 0 0 1-3.366 2.334c-1.308.55-2.774.826-4.398.826-1.597 0-3.05-.276-4.357-.826a9.659 9.659 0 0 1-3.367-2.334c-.936-1.005-1.666-2.216-2.189-3.635-.524-1.417-.785-2.98-.785-4.687 0-1.707.269-3.263.806-4.667s1.28-2.602 2.23-3.593a10.025 10.025 0 0 1 3.387-2.313c1.307-.55 2.732-.826 4.275-.826 1.569 0 3.007.276 4.316.826a9.79 9.79 0 0 1 3.366 2.313c.936.991 1.666 2.189 2.189 3.593.523 1.404.784 2.96.784 4.667zm-6.277 0c0-1.9-.379-3.393-1.136-4.481-.757-1.088-1.838-1.631-3.242-1.631-1.405 0-2.492.544-3.263 1.631-.771 1.088-1.156 2.581-1.156 4.481s.385 3.408 1.156 4.522c.771 1.115 1.858 1.673 3.263 1.673 1.404 0 2.484-.557 3.242-1.673.757-1.115 1.136-2.622 1.136-4.522z"/><path d="M90.407 27.291c-.908-.974-1.617-2.147-2.136-3.51a19 19 0 0 1-1.25.28c-.703.124-1.384.186-2.045.186-1.378 0-2.292-.385-2.747-1.156-.454-.771-.682-1.803-.682-3.098v-7.64h7.393V7.229h-7.393V.828l-6.154.991v18.256c0 1.404.131 2.684.392 3.841.262 1.156.723 2.141 1.384 2.953.661.812 1.542 1.446 2.644 1.9 1.101.454 2.492.681 4.172.681 1.321 0 2.437-.11 3.346-.33.813-.197 2.721-.835 3.733-1.195a9.813 9.813 0 0 1-.657-.634zM39.113 11.854c-.303-1.101-.82-2.037-1.549-2.809-.73-.771-1.7-1.363-2.912-1.776-1.212-.413-2.726-.619-4.543-.619-.716 0-1.425.035-2.127.103-.702.069-1.37.151-2.003.247a23.86 23.86 0 0 0-1.755.331c-.099.023-.18.044-.273.067.124.692.192 1.43.192 2.225 0 1.092-.13 2.077-.363 2.977.72-.256 1.56-.458 2.529-.602a21.09 21.09 0 0 1 3.098-.227c1.57 0 2.671.317 3.304.95.633.634.95 1.473.95 2.519v.578c-.386-.11-.888-.199-1.508-.268a19.425 19.425 0 0 0-2.127-.103c-1.184 0-2.327.118-3.428.351-1.102.234-2.079.613-2.932 1.136a5.893 5.893 0 0 0-2.045 2.107c-.51.882-.764 1.955-.764 3.221 0 1.322.22 2.437.661 3.346a5.567 5.567 0 0 0 1.9 2.21c.826.565 1.81.971 2.953 1.218 1.142.248 2.416.372 3.82.372 2.231 0 4.131-.131 5.7-.392a79.276 79.276 0 0 0 3.676-.682V15.529c0-1.348-.151-2.574-.454-3.675zm-5.452 12.638c-.33.055-.771.096-1.321.124-.551.028-1.13.042-1.735.042-1.129 0-2.017-.186-2.664-.558-.647-.372-.971-1.039-.971-2.003 0-.495.11-.909.33-1.239.221-.33.523-.592.909-.785a4.263 4.263 0 0 1 1.343-.393 12.33 12.33 0 0 1 1.631-.103c.413 0 .868.028 1.363.083.496.055.868.11 1.115.165v4.667z"/></g></svg>