<svg xmlns="http://www.w3.org/2000/svg" width="1000" height="632.517" viewBox="0 0 1000 632.517"><path fill="#D1D3D4" d="M219.987 350.325l63.631 36.738 29.689-17.141v-10.974l-63.631-36.738-29.689 17.141z"/><path fill="#FFF" d="M283.618 376.088l-63.631-36.737 1.369-1.844 26.35-15.297h1.97l63.631 36.738-1.844-.073-26.641 15.465z"/><path fill="#E6E7E8" d="M284.822 374.34l-1.204 1.748-63.631-36.737 1.369-1.844z"/><path fill="#BCBEC0" d="M229.94 345.097l-.969-.559 1.425-1.784 27.429-15.839.993.574-27.472 15.816zM274.499 370.843l-.969-.56 1.425-1.784 27.493-15.838.992.573-27.535 15.817z" opacity=".7"/><ellipse transform="rotate(23.055 266.663 349.175)" fill="#ADC742" cx="266.647" cy="349.149" rx="3.257" ry="2.511"/><path fill="#F1F2F2" d="M300.158 368.605l-2.228 1.287v1.997l-2.229 1.286v5.863l4.006 2.243 3.352-1.892 72.07 42.107 3.629-2.045-72.071-42.157 1.614-.931v-3.718l-5.914-3.33-1.39.803z"/><path fill="#D1D3D4" d="M367.472 435.367l63.631 36.737 29.689-17.141v-10.974l-63.631-36.737-29.689 17.14z"/><path fill="#FFF" d="M431.103 461.13l-63.631-36.738 1.369-1.843 26.351-15.297h1.969l63.631 36.737-1.844-.072-26.64 15.464z"/><path fill="#E6E7E8" d="M432.308 459.381l-1.205 1.749-63.631-36.738 1.369-1.843z"/><path fill="#BCBEC0" d="M377.425 430.138l-.969-.559 1.425-1.784 27.43-15.838.992.573-27.471 15.816zM421.984 455.884l-.969-.559 1.425-1.785 27.493-15.838.993.573-27.535 15.817z" opacity=".7"/><ellipse transform="rotate(23.055 414.157 434.223)" fill="#ADC742" cx="414.132" cy="434.191" rx="3.257" ry="2.511"/><path fill="none" stroke="#F1F2F2" stroke-width="3.735" stroke-miterlimit="10" d="M450.749 462.096l73.489 42.776s23.812 19.141 50.058 3.993c26.246-15.148 0-30.295 0-30.295L259.408 296.764s-27.417-15.829-.59-30.641c26.827-14.812 53.064.34 53.064.34l78.725 45.447s25.896 14.75 25.896-15.35v-30.1"/><path fill="#F1F2F2" d="M455.308 462.104l1.614-.931v-3.718l-5.914-3.33-1.39.802-.839-1.512-2.229 1.286v1.997l-2.228 1.287v5.862l4.006 2.244 3.352-1.892z"/><circle fill="#F1F2F2" cx="521.813" cy="505.366" r="8.076"/><circle fill="#F1F2F2" cx="508.696" cy="440.692" r="8.076"/><circle fill="#F1F2F2" cx="377.49" cy="364.44" r="8.076"/><circle fill="#F1F2F2" cx="247.046" cy="277.491" r="8.076"/><circle fill="#F1F2F2" cx="416.503" cy="300.12" r="8.076"/><path fill="none" stroke="#FFF" stroke-width="8.489" stroke-miterlimit="10" d="M640.13 328.807l100.538 60.242s25.266 16.909 25.266-13.233V157.578s-.417-31.091 27.216-14.592 33 19.057 33 19.057"/><path fill="none" stroke="#FFF" stroke-width="8.489" stroke-miterlimit="10" d="M765.934 299.789s-.417-30.849 27.216-14.35 33 19.057 33 19.057"/><g><path fill="#FFF" d="M591.979 279.022c0-39.541-22.983-84.944-51.571-102.329-18.812-92.932-99.076-162.229-139.757-118.33-16.154-24.605-39.396-24.584-42.359.873-28.346-16.607-52.252.951-53.174 39.484-48.769-43.208-51.458 64.956-3.294 85.049l155.319 89.674c3.945 2.714 7.89 4.992 11.835 6.833l65.287 37.694c3.296 2.34 6.592 4.243 9.889 5.709 26.825 12.055 47.825-6.859 47.825-44.657z"/><g fill="#FFF"><path d="M516.728 264.504c4.24 2.917 8.481 5.365 12.721 7.344L349.79 168.122l166.938 96.382z"/><path d="M395.842 20.85s-12.478-8.567-21.974-10.202c-22.126-3.811-29.365 20.6-29.365 20.6-5.325-1.686-10.501-2.536-15.491-2.536-13.39-.001-24.999 6.219-32.688 17.512-3.582 5.262-6.298 11.55-8.133 18.808-3.181-.938-6.334-1.409-9.45-1.409-16.931 0-29.696 13.267-34.145 35.49-3.335 16.655-1.665 36.955 4.466 54.303 7.327 20.729 20.42 36.062 36.932 43.291l165.755 95.699c4.517 3.074 9.116 5.73 13.688 7.902l69.126 39.91c4.102 2.863 8.296 5.254 12.476 7.114 7.5 3.371 15.018 5.091 22.299 5.091 3.861 0 7.596-.493 11.17-1.434l-.025.037s34.697-10.22 49.44-14.675c14.743-4.455 27.751-7.047 36.559-19.842 7.976-11.586 12.192-27.496 12.192-46.009 0-44.801-24.617-95.354-56.938-118.479-8.549-37.486-26.138-73.144-49.885-100.953-25.081-29.372-54.363-46.22-80.338-46.225-11.092 0-21.426 2.997-30.516 8.774C451.93 4.616 446.523-1.156 427.015.194S395.842 20.85 395.842 20.85zm4.867 8.665c-.097.061-.199.112-.297.174-.153-.152-.31-.293-.463-.443.254.093.504.171.76.269zm152.009 305.054c-3.543-1.576-7.086-3.622-10.629-6.136l-70.171-40.513c-4.24-1.979-8.481-4.427-12.721-7.344l-166.938-96.382c-44.301-18.482-44.919-106.601-13.517-106.601 5.799 0 12.696 3.01 20.605 10.017.706-29.491 12.138-44.929 29.665-44.928 7.086 0 15.169 2.524 23.94 7.663 1.606-13.804 8.759-20.65 17.684-20.649 8.765.001 19.241 6.606 27.844 19.71 9.255-9.987 20.408-14.523 32.446-14.521 44.832.007 101.827 62.962 117.766 141.704 30.727 18.685 55.429 67.485 55.429 109.984 0 32.393-14.35 51.882-34.782 51.882-5.193-.001-10.779-1.26-16.621-3.886z"/></g><path fill="#FE6F0A" d="M494.122 267.975c-22.991-13.274-45.981-26.56-68.972-39.785-1.212-.697-1.616-1.328-1.601-3.055.047-5.563-.003-5.593 4.121-3.212 45.188 26.091 90.377 52.187 135.565 78.246 1.124.648 1.676 1.295 1.543 2.925a23.468 23.468 0 0 0-.001 3.675c.136 1.783-.406 1.801-1.535 1.148-23.04-13.34-46.08-26.633-69.12-39.935v-.007z"/><path fill="#231F20" d="M346.532 151.703c-2.726-1.573-5.452-3.143-8.178-4.724-.622-.361-1.159-.742-1.105.6.263 6.534 5.256 13.16 9.252 12.218.377-.089.856-.19.994-.608.557-1.684 1.715-.928 2.932-.166 1.139.713 2.28 1.319 3.42 1.984 1.827 1.066 1.937 1.444 1.163 3.393-1.467 3.696-4.031 5.053-7.419 4.421-3.586-.668-7.191-3.102-10.616-7.102-3.7-4.321-5.675-9.602-6.489-15.391-.919-6.539-.878-12.397 1.077-16.94 2.609-6.059 8.674-4.921 13.952-.684 6.994 5.613 9.896 14.217 10.402 23.279.296 5.299.217 5.262-3.437 3.152l-5.948-3.432zm-3.567-8.558v-.01c1.484.857 2.969 1.722 4.453 2.567.654.373 1.133.552.983-.825-.429-3.924-2.477-7.77-5.117-9.425-2.941-1.844-5.019-.75-5.657 2.742-.267 1.463.183 2.022 1.183 2.563 1.383.75 2.769 1.588 4.155 2.388zM375.357 168.345c-2.726-1.572-5.452-3.113-8.178-4.738-.933-.556-1.159-.276-1.054 1.081.599 7.732 5.628 11.93 8.777 11.768.468-.024.998-.053 1.168-.519.723-1.981 2.177-.891 3.613-.02 1.189.72 2.38 1.414 3.568 2.059.997.541 1.191 1.136.829 2.208-1.367 4.044-3.858 5.809-7.416 5.274-3.676-.553-7.348-3.045-10.892-7.104-3.346-3.833-5.32-8.572-6.264-13.843-1.242-6.934-1.264-13.087.62-18.028 2.564-6.725 8.815-5.499 14.253-1.089 6.672 5.41 9.916 13.656 10.383 24.4.216 4.955.206 4.044-2.718 2.405-2.228-1.25-4.459-2.568-6.689-3.854zm-3.539-8.542v-.008c1.48.854 2.96 1.708 4.44 2.564.595.344 1.151.577.969-.657-.538-3.663-1.984-7.649-5.149-9.62-3.027-1.886-5.275-.736-5.722 2.824-.137 1.092.018 1.824 1.022 2.353 1.479.779 2.96 1.689 4.44 2.544zM404.398 163.345c3.863 2.152 3.921 2.161 5.062 7.917 1.466 7.401 2.826 14.786 4.23 22.178.07.366.081.733.189 1.093.166.555.201 1.269.658 1.563.102.066.255-.658.347-1.055 1.627-7.039 3.27-14.062 4.845-21.149.222-1.001.596-1.336 1.391-.889a236.818 236.818 0 0 1 5.352 3.085c1.332.795 1.062 1.804.784 2.738a7443.193 7443.193 0 0 1-5.391 18.049c-1.804 6.006-3.601 12.019-5.447 17.981-.384 1.241-.9 2.36-1.47 3.376-1.153 2.055-2.772 2.74-5.221 1.046-1.378-.953-2.776-1.703-4.16-2.402-1.005-.507-1.313-1.227-1.247-2.499.065-1.252.09-2.548-.006-3.886-.125-1.732.345-1.869 1.504-1.159 2.737 1.678 3.824 1.119 4.492-1.719.352-1.494-.261-3.241-.624-4.883a7604.898 7604.898 0 0 0-8.91-39.718c-.402-1.768-.034-1.844.955-1.217.887.562 1.778 1.037 2.667 1.55z"/><path fill="#0F75A6" d="M354.989 187.642c-13.472-7.779-26.945-15.582-40.417-23.295-1.277-.731-1.701-1.346-1.675-3.195.077-5.438.013-5.474 4.053-3.142 26.152 15.1 52.305 30.213 78.457 45.26 1.359.782 1.774 1.504 1.743 3.392-.084 5.272-.021 5.31-3.974 3.028l-38.187-22.048z"/><path fill="#231F20" d="M459.511 233.158c-2.669-1.529-2.634-1.524-3.433-5.483-.74-3.667-1.566-7.347-2.353-11.021-.257-1.2-.644-2.024-1.592-2.554a612.966 612.966 0 0 1-12.486-7.201c-.951-.561-1.413-.349-1.714.72-.921 3.269-1.937 6.438-2.9 9.663-.309 1.034-.771 1.358-1.83.737-3.847-2.257-3.867-2.211-2.504-6.431 4.036-12.489 8.103-24.944 12.11-37.465.359-1.123.84-1.271 1.832-.703 4.311 2.467 4.359 2.433 5.794 8.656 3.885 16.852 7.723 33.7 11.586 50.55.364 1.588.148 2.196-1.023 1.396-.494-.336-.992-.58-1.487-.864zm-13.947-29.041v.012c1.482.856 2.966 1.664 4.447 2.584 1.004.624 1.395.376 1.06-1.193-1.522-7.113-3.037-14.226-4.571-21.341-.106-.493-.33-1.312-.524-1.441-.511-.339-.466.504-.587.883-1.7 5.306-3.365 10.652-5.048 15.977-.285.902-.053 1.494.777 1.958 1.48.83 2.963 1.705 4.446 2.561zM555.181 271.956c-2.823-1.63-5.647-3.251-8.47-4.897-.77-.449-1.328-.669-1.314.756.046 4.509 1.868 9.505 4.64 12.522 3.052 3.32 6.642 4.268 8.736 2.296.232-.218.446-.472.644-.746.44-.607.398-2.17 1.176-1.954 1.089.303 2.273 1.087 3.4 1.884 1.143.809.577 1.708.401 2.254-1.228 3.83-3.34 5.999-6.714 5.862-5.098-.207-11.589-6.264-14.586-13.785-2.527-6.34-2.974-12.128-2.474-17.605.313-3.432 1.039-6.451 2.583-8.588 3.089-4.278 7.927-3.064 12.762.927 4.541 3.747 7.724 10.762 8.563 18.056.239 2.081.52 4.17.598 6.205.074 1.937-.253 2.546-1.773 1.576-2.719-1.733-5.447-3.189-8.172-4.763zm-2.368-6.5l6.38 3.683c.573.331 1.148.649 1.069-.529-.245-3.666-1.007-7.371-3.409-10.525-5.241-6.881-10.565-5.284-11.412 1.658-.144 1.178.377 1.7 1.14 2.129 2.078 1.167 4.155 2.388 6.232 3.584zM463.713 218.12c-.057-5.979.762-10.607 3.405-13.354 4.398-4.57 13.163.052 17.261 9.073 1.391 3.061 1.955 6.132 2.341 9.186.04.319-.02.721-.161.847-.806.72-4.247-2.409-4.535-4.13-.699-4.179-2.517-7.232-5.261-9.165-2.581-1.818-4.961-2.228-6.286.221-2.708 5.006-2.604 11.948-.273 19.982 1.102 3.798 3.368 6.238 5.872 7.503 3.061 1.546 4.812-.016 5.824-3.161.219-.682.15-1.917.913-1.609 1.215.49 2.472 1.081 3.678 2.236.414.397.225.915.161 1.348-1.019 6.849-4.456 9.456-9.557 7.234-5.587-2.434-10.139-8.75-12.268-16.875a33.868 33.868 0 0 1-1.114-9.336zM312.938 129.714c0-5.658.033-11.298-.022-16.986-.015-1.581.281-2.074 1.504-1.239 1.33.908 2.676 1.631 4.011 2.321 1.15.594 1.604 1.452 1.555 3.044-.031 1-.429 2.332.322 3.135.545.583.854-.912 1.289-1.442 1.58-1.925 3.71-1.772 6.223-.329.725.416 1.119.979 1.113 2.048a596.96 596.96 0 0 0 .004 7.569c.008 1.107-.387 1.147-1.122.68-1.336-.848-2.693-1.666-3.973-1.788-2.408-.229-3.487 1.778-3.564 5.014-.13 5.439-.062 11.001-.081 16.509-.003.952-.062 1.874-.031 2.843.042 1.296-.409 1.423-1.267.901-1.535-.934-3.074-1.852-4.607-2.645-1.037-.536-1.384-1.247-1.373-2.672.046-5.631.019-11.305.019-16.963zM397.116 171.556c-.001 7.831-.031 15.645.024 23.507.012 1.64-.406 1.962-1.537 1.261-1.434-.889-2.873-1.731-4.305-2.464-1.13-.579-1.436-1.427-1.433-2.889.026-15.715.031-31.443-.008-47.196-.004-1.57.369-1.807 1.451-1.099 1.382.904 2.776 1.725 4.155 2.397 1.255.61 1.709 1.345 1.689 3.216-.084 7.712-.035 15.504-.036 23.267zM517.018 229.012c2.507 1.443 2.537 1.447 3.332 5.303 1.906 9.243 3.782 18.482 5.662 27.721.132.65.105 1.475.633 1.822.625.411.471-.629.6-1.062 2.185-7.318 4.366-14.64 6.49-22.021.394-1.369.965-1.653 2.24-.865 3.349 2.07 3.368 1.998 2.187 5.586-2.913 8.847-5.859 17.658-8.742 26.538-.3.924-.7 1.049-1.497.641-3.635-1.862-3.69-1.841-4.938-7.181-2.8-11.987-5.529-23.97-8.317-35.957-.407-1.749-.094-2.074 1.014-1.303.442.308.891.523 1.336.778zM492.365 234.127c0-3.951-.047-7.93.022-11.839.029-1.623-.301-2.488-1.571-3.18-2.11-1.149-2.816-3.091-2.182-5.582.252-.988.897-.371 1.456-.053 2.55 1.451 2.256 1.604 2.274-1.915.008-1.63.088-3.229-.02-4.913-.117-1.823.451-2.056 1.603-1.325.591.375 1.192.779 1.774 1.01.959.381 1.224 1.145 1.209 2.325-.029 2.162.087 4.42-.034 6.516-.106 1.828.447 2.718 1.698 3.215.292.116.6.387.889.489 1.422.502 1.905 1.567 1.84 3.504-.093 2.776-.008 2.831-2.128 1.601-2.269-1.316-2.27-1.317-2.27 1.793 0 6.744-.005 13.484.005 20.234.004 2.874.652 4.123 2.748 5.388.812.49 1.67.624 1.649 2.562-.037 3.355-.018 3.465-1.681 2.737-5.209-2.282-7.544-5.825-7.297-13.383.098-3.001.016-6.118.016-9.184zM510.498 243.975c0 5.445-.043 10.867.024 16.349.022 1.813-.44 2.144-1.721 1.371-3.457-2.083-3.05-1.28-3.056-5.849-.014-10.354.022-20.679-.036-31.058-.01-1.794.352-2.18 1.671-1.352 3.415 2.143 3.115 1.173 3.117 6.041.004 4.834.002 9.666.001 14.498z"/><path fill="#FE6F0A" d="M510.493 215.078c.006 4.095.27 3.788-2.564 2.155-2.182-1.258-2.213-1.276-2.178-4.384.052-4.686-.55-4.291 2.939-2.462 1.376.721 2.068 1.581 1.812 3.479-.049.365-.007.807-.009 1.212z"/></g><g><g fill="#D1D3D4"><path d="M980.812 23.187l9.683 5.627c-5.864-3.408-13.983-2.928-22.944 2.246-3.5 2.021-6.858 4.616-10.013 7.619l-9.684-5.628c3.155-3.003 6.513-5.598 10.013-7.618 8.962-5.174 17.082-5.654 22.945-2.246zM842.806 64.907c7.851-4.533 15.218-6.413 21.607-5.952 8.942-16.461 21.835-31.002 36.186-39.288 13.646-7.879 26.005-8.607 34.93-3.42l9.684 5.627c-8.926-5.187-21.284-4.458-34.931 3.42-14.351 8.286-27.244 22.827-36.186 39.288-6.389-.461-13.756 1.42-21.607 5.952-24.273 14.014-43.893 47.988-43.814 75.889.039 13.856 4.933 23.606 12.824 28.192l-9.683-5.627c-7.891-4.586-12.785-14.336-12.824-28.192-.08-27.901 19.541-61.876 43.814-75.889z"/></g><path fill="#FFF" d="M910.282 25.294c-14.351 8.286-27.244 22.827-36.186 39.288-6.389-.461-13.756 1.42-21.607 5.952-24.273 14.014-43.893 47.988-43.814 75.889.079 27.891 19.828 39.145 44.101 25.132l114.986-66.387c17.808-10.281 32.2-35.209 32.142-55.671-.058-20.462-14.544-28.717-32.352-18.436-3.5 2.021-6.858 4.616-10.013 7.619-6.023-20.018-24.914-26.286-47.257-13.386z"/><g><path fill="#266780" d="M926.763 118.649l-10.921-6.347-.191-67.422 10.921 6.347z"/><path fill="#0A6B91" d="M926.572 51.227l-10.921-6.347 14.65-8.458 10.921 6.347z"/><path fill="#0A70A2" d="M941.222 42.769l.191 67.422-14.65 8.458-.191-67.422z"/><path fill="#D25627" d="M907.439 129.806l-10.921-6.347-.089-31.473 10.921 6.347z"/><path fill="#D85E39" d="M907.35 98.333l-10.921-6.347 14.647-8.456 10.921 6.346z"/><path fill="#F16A22" d="M921.997 89.876l.089 31.473-14.647 8.457-.089-31.473z"/><g><path fill="#8F9D3E" d="M888.115 140.963l-10.921-6.347-.151-53.311 10.921 6.346z"/><path fill="#A3B535" d="M887.964 87.651l-10.921-6.346 14.647-8.457 10.921 6.347z"/><path fill="#ADC742" d="M902.611 79.195l.151 53.311-14.647 8.457-.151-53.312z"/></g><g><path fill="#11100F" d="M868.791 152.119l-10.921-6.346-.105-36.845 10.921 6.347z"/><path fill="#474747" d="M868.686 115.275l-10.921-6.347 14.647-8.456 10.922 6.347z"/><path fill="#5A5B5B" d="M883.334 106.819l.104 36.844-14.647 8.456-.105-36.844z"/></g></g></g><g><g fill="#D1D3D4"><path d="M980.812 158.646l9.683 5.627c-5.864-3.408-13.983-2.928-22.944 2.246-3.5 2.021-6.858 4.616-10.013 7.619l-9.684-5.628c3.155-3.003 6.513-5.598 10.013-7.618 8.962-5.174 17.082-5.654 22.945-2.246zM842.806 200.365c7.851-4.533 15.218-6.413 21.607-5.952 8.942-16.461 21.835-31.002 36.186-39.288 13.646-7.879 26.005-8.607 34.93-3.42l9.684 5.627c-8.926-5.187-21.284-4.458-34.931 3.42-14.351 8.286-27.244 22.827-36.186 39.288-6.389-.461-13.756 1.42-21.607 5.952-24.273 14.014-43.893 47.988-43.814 75.889.039 13.856 4.933 23.606 12.824 28.192l-9.683-5.627c-7.891-4.586-12.785-14.336-12.824-28.192-.08-27.901 19.541-61.875 43.814-75.889z"/></g><path fill="#FFF" d="M910.379 160.72c-14.351 8.286-27.244 22.827-36.186 39.288-6.389-.461-13.756 1.42-21.607 5.952-24.273 14.014-43.893 47.988-43.814 75.889.079 27.891 19.828 39.145 44.101 25.132l114.986-66.387c17.808-10.281 32.2-35.209 32.142-55.671-.058-20.462-14.544-28.717-32.352-18.436-3.5 2.021-6.858 4.616-10.013 7.619-6.023-20.018-24.914-26.285-47.257-13.386z"/></g><path fill="none" stroke="#FFF" stroke-width="8.489" stroke-miterlimit="10" d="M737.72 387.271l86.45 49.984"/><g><g fill="#D1D3D4"><path d="M980.812 294.864l9.683 5.627c-5.864-3.408-13.983-2.928-22.944 2.246-3.5 2.021-6.858 4.616-10.013 7.619l-9.684-5.628c3.155-3.003 6.513-5.598 10.013-7.618 8.962-5.174 17.082-5.653 22.945-2.246zM842.806 336.584c7.851-4.533 15.218-6.413 21.607-5.952 8.942-16.461 21.835-31.002 36.186-39.288 13.646-7.879 26.005-8.607 34.93-3.42l9.684 5.627c-8.926-5.187-21.284-4.458-34.931 3.42-14.351 8.286-27.244 22.827-36.186 39.288-6.389-.461-13.756 1.42-21.607 5.952-24.273 14.014-43.893 47.988-43.814 75.889.039 13.856 4.933 23.606 12.824 28.192l-9.683-5.627c-7.891-4.586-12.785-14.336-12.824-28.192-.08-27.901 19.541-61.875 43.814-75.889z"/></g><path fill="#FFF" d="M910.282 296.971c-14.351 8.286-27.244 22.827-36.186 39.288-6.389-.461-13.756 1.42-21.607 5.952-24.273 14.014-43.893 47.988-43.814 75.889.079 27.891 19.828 39.146 44.101 25.132l114.986-66.387c17.808-10.281 32.2-35.209 32.142-55.671-.058-20.462-14.544-28.717-32.352-18.436-3.5 2.021-6.858 4.616-10.013 7.619-6.023-20.018-24.914-26.285-47.257-13.386z"/></g><g opacity=".7" fill="none" stroke="#FFF" stroke-miterlimit="10"><path stroke-width="7.233" d="M398.818 528.544c3.412-6.259 1.559-13.573-5.81-19.014-7.369-5.441-18.35-7.604-28.416-6.257"/><path stroke-width="4.34" d="M386.941 528.135c2.324-4.262 1.062-9.243-3.957-12.949-5.019-3.706-12.497-5.178-19.351-4.261M376.595 527.888c1.392-2.554.636-5.538-2.37-7.758-3.007-2.22-7.487-3.102-11.593-2.553"/></g><g><g fill="#E6E7E8"><path d="M362.323 521.202v-.011h-.001zM362.323 521.213c-.017.437-.277.949-1.066 1.472-1.21.802-102.641 60.994-102.641 60.994 1.459 2.3 2.256 4.784 2.256 7.375 0 11.841-16.626 21.44-37.136 21.44-20.509 0-37.136-9.599-37.136-21.44v20.023c0 11.841 16.626 21.44 37.136 21.44s37.136-9.599 37.136-21.44c0-2.591-.029-7.469-.029-7.469s99.204-60.099 100.414-60.9c.847-.561 1.085-1.11 1.067-1.567-.027-.675-.002-19.694-.001-19.928z"/></g><path fill="#FFF" d="M343.281 511.838c-1.758 1.046-101.675 60.419-101.675 60.419-5.302-1.684-11.391-2.644-17.87-2.644-20.509 0-37.136 9.599-37.136 21.44 0 11.841 16.626 21.44 37.136 21.44s37.136-9.599 37.136-21.44c0-2.591-.797-5.075-2.256-7.375 0 0 101.431-60.193 102.641-60.994 2.11-1.398.442-2.722.442-2.722l-15.101-8.129c0 .001-1.559-1.041-3.317.005z"/><path fill="#CC1B1B" d="M353.201 521.829l-9.07-4.638-103.662 61.481c-4.575-2.074-10.368-3.323-16.683-3.323-14.766 0-26.736 6.783-26.736 15.151 0 8.367 11.97 15.15 26.736 15.15s26.736-6.783 26.736-15.15c0-2.282-.916-4.438-2.51-6.379l105.189-62.292z"/><path fill="none" stroke="#FFF" stroke-width="1.698" stroke-linecap="round" stroke-linejoin="round" stroke-miterlimit="10" d="M254.276 573.718l6.861 3.962M280.506 558.56l6.862 3.962M306.748 543.412l6.861 3.961M332.989 528.262l6.861 3.961"/></g><g><path fill="#E6E7E8" d="M0 452.915v15.152c-.001 1.847 1.212 3.695 3.639 5.096l56.46 32.832c2.426 1.401 5.624 2.101 8.822 2.101 3.198 0 6.396-.7 8.823-2.101l113.566-65.568c2.426-1.401 3.639-3.247 3.639-5.093v-15.776L0 452.915z"/><path fill="#FFF" d="M134.846 382.255c-2.426-1.401-5.623-2.101-8.821-2.101-3.198 0-6.397.7-8.823 2.101L3.639 447.824c-2.425 1.4-3.638 3.245-3.639 5.091-.001 1.847 1.212 3.695 3.639 5.096l56.46 32.832c2.426 1.401 5.624 2.101 8.822 2.101 3.198 0 6.396-.7 8.823-2.101l113.566-65.568c2.426-1.401 3.639-3.247 3.639-5.093s-1.213-3.693-3.639-5.094l-56.464-32.833z"/><path fill="#27AAE1" d="M15.818 440.828l74.095 43.016 93.27-53.687-76.758-41.68z"/></g><g><g fill="#A3B535"><path d="M819.973 277.538c0-14.366 11.798-32.489 26.202-40.806 7.287-4.207 14.062-5.225 18.984-3.353-4.974-3.357-13.46-6.798-24.387-.489-17.926 10.349-25.522 28.268-25.522 40.771 0 7.191 5.299 14.203 10.358 16.213-3.59-2.344-5.635-6.362-5.635-12.336zM825.81 290.017l-2.963 10.046 4.991 2.4 2.621-10.595c-.881-.199-3.867-1.539-4.649-1.851z"/></g><path fill="#D1D3D4" d="M849.462 280.266c0-12.072 9.818-27.58 22.286-34.778 5.77-3.332 11.227-4.115 15.295-2.632-4.157-2.938-10.687-2.631-17.672 1.402-12.467 7.198-22.286 22.706-22.286 34.778 0 6.273 2.646 10.401 6.93 11.924-2.863-2.041-4.553-5.683-4.553-10.694z"/><path fill="none" d="M876.333 257.952c0-1.505 1.306-3.774 2.602-4.523 1.963-1.134 3.279-.379 3.279 1.127 0 1.528-1.316 3.78-3.279 4.913-1.296.749-2.602.011-2.602-1.517m-26.871 22.314c0 12.092 9.819 16.243 22.286 9.045 2.609-1.506 5.241-3.785 7.862-6.056l7.188.387-1.971-6.408c5.26-7.583 9.177-15.874 9.177-22.684 0-12.072-10.482-15.86-22.256-9.062-12.467 7.197-22.286 22.706-22.286 34.778"/><path fill="none" d="M833.717 260.53c0-2.271 1.982-4.91 3.946-6.044 1.964-1.134 3.271-.393 3.271 1.878 0 2.266-1.307 4.534-3.271 5.668-1.964 1.133-3.946.764-3.946-1.502m18.35-10.594c0-2.271 1.971-4.904 3.934-6.037 1.973-1.139 3.28-.398 3.28 1.872 0 2.266-1.307 4.534-3.28 5.673-1.964 1.134-3.934.758-3.934-1.508m-32.094 27.602c0 8.295 3.925 12.835 10.485 14.331l-2.621 10.595 9.16-10.58c3.278-1.146 5.907-1.894 9.178-3.783a45.446 45.446 0 0 0 2.446-1.533c-.512-1.722-.809-3.664-.809-5.859 0-13.191 9.831-29.571 22.278-36.757.849-.49 1.689-.905 2.523-1.279-2.268-10.856-13.554-13.379-26.437-5.941-14.405 8.317-26.203 26.44-26.203 40.806"/><path fill="#ADC742" d="M830.458 291.869c-6.56-1.496-10.485-6.036-10.485-14.331 0-14.366 11.798-32.489 26.202-40.806 12.883-7.438 24.17-4.915 26.437 5.941-.834.374-1.674.789-2.523 1.279-12.447 7.186-22.278 23.566-22.278 36.757 0 2.195.297 4.138.809 5.859a45.055 45.055 0 0 1-2.446 1.533c-3.271 1.888-5.901 2.636-9.178 3.783l-9.16 10.58 2.622-10.595z"/><path fill="#EFEFEF" d="M849.462 280.266c0-12.072 9.819-27.58 22.286-34.778 11.774-6.798 22.256-3.01 22.256 9.062 0 6.81-3.918 15.101-9.177 22.684l1.971 6.408-7.188-.387c-2.621 2.27-5.253 4.549-7.862 6.056-12.467 7.197-22.286 3.047-22.286-9.045"/><g fill="#504F51"><path d="M837.663 254.486c-1.964 1.134-3.946 3.773-3.946 6.044 0 2.265 1.982 2.634 3.946 1.501 1.964-1.134 3.271-3.402 3.271-5.667 0-2.271-1.307-3.012-3.271-1.878M864.523 260.879c-1.305.753-2.621 3.028-2.621 4.533 0 1.528 1.316 2.26 2.621 1.507 1.982-1.144 3.279-3.386 3.279-4.913 0-1.506-1.298-2.272-3.279-1.127"/></g><path fill="#504F51" d="M878.935 253.429c-1.296.748-2.602 3.017-2.602 4.523 0 1.528 1.306 2.266 2.602 1.518 1.963-1.134 3.279-3.386 3.279-4.913 0-1.506-1.316-2.261-3.279-1.128M856.001 251.444c1.973-1.139 3.28-3.408 3.28-5.674 0-2.271-1.307-3.011-3.28-1.872-1.964 1.134-3.934 3.767-3.934 6.037 0 2.267 1.97 2.643 3.934 1.509"/></g><g><g fill="#0A70A2"><path d="M935.148 178.575c2.131-1.479 4.161-3.289 6.049-5.357l-2.198-1.806c-1.509 2.977-1.897 4.647-3.851 7.163zM905.452 226.998c-4.609 2.414-8.499.774-9.839-3.668a10.78 10.78 0 0 0 1.982-.849 15.35 15.35 0 0 0 2.775-1.973c-2.124.633-4.611-.961-6.314-1.808l-3.101 1.048c1.136 4.729 4.696 8.065 4.696 8.065-3.739 4.673-12.336 9.934-12.336 9.934l6.544 3.169c.824-.33 1.662-.726 2.512-1.191 4.934-2.698 9.476-7.263 13.081-12.727z"/><path d="M893.432 195.602c5.195 5.041 12.956 5.985 21.709 1.743a13.796 13.796 0 0 1-.273-2.82c0-7.193 4.716-15.603 10.533-18.782 3.029-1.656 5.767-1.57 7.688-.089 2.4-1.895 4.654-4.212 6.689-6.817l-5.708-3.651c-2.035 2.605-4.289 4.921-6.688 6.817-1.921-1.482-4.659-1.567-7.688.089-5.817 3.18-10.533 11.589-10.533 18.783 0 1.021.093 1.964.272 2.819-8.036 2.423-18.253-5.314-18.253-5.314-1.636 8.289-2.802 15.981.37 20.707-.947.048-1.692-.046-1.692-.046.385 6.124 2.576 8.779 4.167 9.909-1.307-1.455-2.105-3.684-2.105-6.596l.001-.164c1.42.199 3.044-.102 4.771-.979-1.006-.281-1.878-.855-2.595-1.665"/></g><path fill="#55ACEE" d="M941.197 173.218c-1.889 2.068-3.919 3.878-6.049 5.358 2.175-2.801 3.845-6.266 4.631-9.738-2.035 2.605-4.289 4.921-6.688 6.817-1.921-1.481-4.659-1.567-7.688.089-5.817 3.18-10.533 11.589-10.533 18.782 0 1.021.093 1.964.273 2.819-8.754 4.242-16.515 3.298-21.71-1.743-.907 2.419-1.426 4.941-1.426 7.328 0 4.519 1.859 7.489 4.686 8.281-1.727.876-3.351 1.178-4.771.978l-.001.164c0 6.311 3.631 9.591 8.449 8.154a15.307 15.307 0 0 1-2.775 1.974c-.679.371-1.339.65-1.982.85 1.34 4.442 5.23 6.082 9.839 3.668-3.605 5.464-8.146 10.028-13.081 12.726-.85.465-1.689.861-2.513 1.191 4.661 1.148 10.198.278 16.146-2.973 19.374-10.59 29.968-36.228 29.968-53.441 0-.565-.01-1.121-.03-1.668a52.237 52.237 0 0 0 5.255-9.616z"/></g><g><path fill="#11100F" d="M259.51 480.193c12.447 15.785-.081 38.072-23.789 57.769-25.823 21.454-55.106 31.706-73.64 15.856a32.278 32.278 0 0 1-2.322-2.206c1.15 1.401 2.41 2.744 3.856 3.981 18.533 15.85 47.817 5.598 73.64-15.856 24.611-20.447 37.175-43.685 22.255-59.544z"/><path fill="#474747" d="M184.824 494.899c-20.949 17.405-37.652 35.568-29.118 50.336 2.667 4.616 7.91 10.359 7.91 10.359l4.332 3.124s-5.571-5.442-8.238-10.058c-8.533-14.768 9.505-31.79 30.453-49.194 20.948-17.404 37.728-31.773 58.796-24.956 5.916 1.914 10.793 5.964 10.793 5.964l-2.589-2.542s-6.293-4.933-12.209-6.847c-21.068-6.818-39.182 6.41-60.13 23.814z"/><path fill="#11100F" d="M231.704 456.16c-18.533-15.85-51.821-9.023-77.644 12.431-25.823 21.454-34.402 49.412-15.868 65.261l25.423 21.742s-5.243-5.743-7.91-10.359c-8.533-14.768 8.17-32.931 29.118-50.336 20.948-17.404 39.063-30.632 60.131-23.814 5.916 1.914 12.209 6.847 12.209 6.847l-25.459-21.772z"/><path fill="#474747" d="M259.703 480.433c-.493-.401-5.151-4.114-10.743-5.924a36.505 36.505 0 0 0-4.117-1.072c3.578 15.187-11.33 30.249-30.54 46.209-19.578 16.266-37.985 28.787-56.289 24.877a16.18 16.18 0 0 0 1.697 4.137c1.639 2.837 4.371 5.98 6.237 7.986 18.576 11.591 45.68 1.335 69.774-18.683 23.586-19.597 36.112-41.759 23.981-57.53zM211.441 474.713s-2.68 1.113-8.951 5.195c-6.271 4.082-10.742 7.969-10.742 7.969l-36.611-18.943s2.648-2.727 9.136-6.95c6.488-4.223 10.853-6.062 10.853-6.062l36.315 18.791z"/><g fill="#27AAE1"><path d="M187.03 469.086l-1.366 1.025 1.939 1.148-5.463 4.099-7.755-4.59 5.463-4.099 1.939 1.147 1.366-1.025-1.939-1.147 1.366-1.025-1.939-1.147-5.463 4.099-1.939-1.148-1.366 1.025 1.939 1.147-2.731 2.05 1.938 1.147-2.731 2.05 1.938 1.147 2.732-2.049 3.877 2.295-2.731 2.049 1.939 1.148 2.731-2.05 1.939 1.148 2.732-2.05 1.938 1.148 1.366-1.025-1.939-1.147 5.463-4.099-1.938-1.148-1.366 1.025-1.939-1.148zM182.58 464.619l7.755 4.59 1.366-1.025-7.755-4.589-1.366 1.024z"/><path d="M181.391 469.415l-1.366 1.024 1.938 1.148 1.366-1.025.97.574 1.365-1.025-3.877-2.295-1.366 1.025.97.574z"/></g></g><g><g fill="#9E1526"><path d="M829.103 423.808v-14.786c0-1.689 1.368-3.849 3.056-4.824l11.715-6.764v-14.368c0-2.07 1.117-4.393 2.494-5.188l12.056-6.961c.639-.369 1.221-.34 1.662-.001 0 0-3.116-3.087-4.494-2.291l-12.056 6.961c-1.378.795-2.494 3.118-2.494 5.188v14.368l-11.715 6.764c-1.688.974-3.056 3.134-3.056 4.824v14.786c0 1.69 3.326 3.672 3.326 3.672-.312-.3-.494-.766-.494-1.38zM860.918 387.594l11.715-6.764c.833-.481 1.587-.582 2.139-.359 0 0-3.283-2.907-4.971-1.933l-8.883 5.129v3.927zM843.874 432.707v-14.368l-2.832 1.635v10.441c0 2.07 3.706 4.633 3.706 4.633-.535-.379-.874-1.202-.874-2.341z"/></g><path fill="#CC1B1B" d="M872.634 380.83l-11.715 6.764v-14.368c0-2.07-1.117-3.103-2.494-2.308l-12.056 6.961c-1.378.795-2.494 3.118-2.494 5.188v14.368l-11.715 6.764c-1.688.974-3.056 3.134-3.056 4.824v14.786c0 1.69 1.368 2.269 3.056 1.295l11.715-6.764v14.368c0 2.07 1.117 3.103 2.494 2.308l12.056-6.961c1.378-.795 2.494-3.118 2.494-5.188v-14.368l11.715-6.764c1.688-.974 3.056-3.134 3.056-4.824v-14.786c0-1.69-1.369-2.269-3.056-1.295z"/></g><g><path fill="#0A6B91" d="M944.448 354.787c0-15.253 9.998-33.391 22.331-40.511 5.471-3.159 10.48-3.613 14.363-1.816a.143.143 0 0 1-.011-.015s-10.649-5.271-18.089-.976c-12.333 7.121-22.331 22.378-22.331 40.511 0 10.727 7.978 16.553 7.978 16.553l.013.005c-2.673-3.01-4.254-7.695-4.254-13.751z"/><path fill="#0A70A2" d="M989.111 329.001c0 15.253-9.998 33.39-22.331 40.511-12.333 7.121-22.331.528-22.331-14.725s9.998-33.39 22.331-40.511c12.333-7.121 22.331-.528 22.331 14.725z"/><path fill="#FFF" d="M972.817 356.001l-11.615 6.706v-1.659c.319-.215.631-.433.937-.655s.57-.451.79-.684c.392-.408.668-.829.827-1.262.159-.433.239-.93.239-1.49v-13.229c0-.531-.098-.94-.294-1.228-.196-.288-.441-.469-.735-.542-.221-.055-.554-.036-1.002.056a5.72 5.72 0 0 0-1.222.387v-1.659l9.006-5.79.276.182v18.047c0 .531.092.928.276 1.193.184.266.448.389.79.373.245-.005.515-.039.809-.103.294-.064.6-.165.919-.303v1.66zm-2.683-29.454c0 1.151-.358 2.34-1.075 3.564-.717 1.224-1.565 2.12-2.545 2.686-.992.573-1.847.661-2.564.264-.717-.396-1.075-1.171-1.075-2.323 0-1.151.358-2.344 1.075-3.576.717-1.232 1.571-2.135 2.564-2.708.992-.573 1.844-.656 2.555-.247s1.065 1.188 1.065 2.34z"/></g><g><path fill="#A3B535" d="M892.271 407.392s-6.557-3.325-6.557-7.726v-40.799c0-4.401 2.784-9.576 6.217-11.559l31.829-18.377c3.434-1.982 9.26 3.044 9.26 3.044"/><path fill="#ADC742" d="M934.816 377.337c0 4.401-2.784 9.576-6.217 11.559l-31.829 18.377c-3.434 1.982-6.217.022-6.217-4.38v-40.799c0-4.401 2.784-9.576 6.217-11.559l31.829-18.377c3.434-1.982 6.217-.022 6.217 4.38v40.799z"/><path fill="#FFF" d="M927.639 346.15l-2.3 1.328v-3.501c0-.917-.58-1.324-1.294-.912l-22.721 13.118c-.715.413-1.294 1.489-1.294 2.406v3.503l-2.301 1.329c-.715.413-1.294 1.489-1.294 2.406v5.519c0 .917.579 1.325 1.294.912s1.294-1.489 1.294-2.406v-3.86l1.007-.581v25.806c0 .916.579 1.325 1.294.912l.269-.155v2.579c0 .916.579 1.325 1.294.912l2.677-1.546c.715-.413 1.294-1.49 1.294-2.406v-2.579l11.65-6.726v2.579c0 .916.58 1.324 1.294.912l2.678-1.546c.714-.412 1.294-1.49 1.294-2.406v-2.579l.269-.155c.714-.412 1.294-1.49 1.294-2.406V350.8l1.006-.581v3.86c0 .917.58 1.324 1.294.912.715-.413 1.294-1.489 1.294-2.406v-5.519c.002-.921-.577-1.328-1.292-.916zm-22.293 40.525c-1.24.716-2.245.009-2.245-1.583 0-1.59 1.005-3.458 2.245-4.174 1.241-.716 2.246-.009 2.246 1.581 0 1.592-1.005 3.459-2.246 4.176zm14.668-8.469c-1.241.716-2.246.009-2.246-1.582 0-1.59 1.004-3.458 2.246-4.174 1.242-.717 2.247-.01 2.247 1.581.001 1.59-1.005 3.458-2.247 4.175zm2.736-27.574v14.73l-20.132 11.623v-18.231l20.132-11.623v3.501z"/></g><g><path fill="#2C4C7C" d="M982.21 176.884s-6.388-5.222-7.341-4.672l-27.817 16.06c-.953.55-1.726 2.034-1.726 3.314v37.364c0 1.28 6.583 6 6.583 6"/><path fill="#3C5A99" d="M980.954 218.873c.953-.55 1.726-2.034 1.726-3.315v-37.364c0-1.28-.773-1.872-1.726-1.322l-27.817 16.06c-.953.55-1.726 2.034-1.726 3.314v37.364c0 1.28.772 1.872 1.726 1.322l27.817-16.059z"/><path fill="#FFF" d="M972.986 223.473v-16.265l4.064-2.347.609-6.69-4.673 2.698v-4.047c0-1.835.379-3.305 2.339-4.436l2.499-1.444v-5.669c-.432.172-1.916.856-3.641 1.852-3.603 2.08-6.069 6.458-6.069 11.883v4.675l-4.075 2.353v6.339l4.075-2.353v16.265l4.872-2.814z"/></g><g opacity=".7" fill="none" stroke="#FFF" stroke-miterlimit="10"><path stroke-width="7.233" d="M202.371 406.183c3.412-6.259 1.559-13.573-5.81-19.014-7.369-5.441-18.35-7.604-28.416-6.257"/><path stroke-width="4.34" d="M190.494 405.775c2.324-4.263 1.062-9.243-3.957-12.949-5.019-3.706-12.497-5.178-19.351-4.261M180.149 405.527c1.392-2.554.636-5.538-2.37-7.758-3.007-2.22-7.487-3.102-11.593-2.553"/></g><g opacity=".7" fill="none" stroke="#FFF" stroke-miterlimit="10"><path stroke-width="7.233" d="M306.178 472.351c3.412-6.259 1.559-13.573-5.81-19.014-7.369-5.441-18.35-7.604-28.416-6.257"/><path stroke-width="4.34" d="M294.301 471.942c2.324-4.263 1.062-9.243-3.957-12.949-5.019-3.706-12.497-5.178-19.351-4.261M283.956 471.695c1.392-2.554.636-5.538-2.37-7.758-3.007-2.22-7.487-3.102-11.593-2.553"/></g></svg>